<svg width="370" height="102" viewBox="0 0 370 102" fill="none" xmlns="http://www.w3.org/2000/svg">
<path d="M364.311 91.3666L369.24 97.6625C370.808 99.6388 369.95 100.627 366.664 100.627C212.642 100.535 86.4138 98.9766 -93.7599 101.544C-116.581 101.87 -144.361 101.758 -177.098 101.208C-181.568 101.146 -184.069 99.5878 -184.602 96.5316L-184.912 94.5757C-185.475 91.2546 -183.329 89.5635 -178.474 89.5023L-124.129 88.9827L-54.6882 89.594C-52.1723 89.6144 -50.7367 88.7587 -50.3815 87.0268C-41.8568 42.895 5.91724 3.71416 73.4935 0.841309C126.595 -1.4203 170.374 16.7948 192.041 50.9633C192.251 51.298 192.568 51.596 192.968 51.8359C193.369 52.0757 193.842 52.2516 194.356 52.3509C194.869 52.4502 195.409 52.4704 195.938 52.4102C196.466 52.35 196.97 52.2108 197.413 52.0025C247.585 28.5307 302.329 52.0942 318.358 87.6075C318.733 88.4403 319.52 89.1562 320.583 89.6309C321.645 90.1055 322.916 90.3088 324.174 90.2053C338.027 89.0236 351.406 89.4106 364.311 91.3666Z" fill="#F1F1F1"/>
</svg>
