<svg width="478" height="102" viewBox="0 0 478 102" fill="none" xmlns="http://www.w3.org/2000/svg">
<path d="M549.311 91.6415L554.24 97.9374C555.808 99.9137 554.95 100.902 551.664 100.902C397.642 100.81 271.414 99.2515 91.2401 101.819C68.4186 102.145 40.6393 102.033 7.90192 101.483C3.43235 101.421 0.931178 99.8627 0.398383 96.8065L0.0875866 94.8506C-0.474809 91.5295 1.67116 89.8384 6.52552 89.7772L60.8707 89.2576L130.312 89.8689C132.828 89.8893 134.263 89.0336 134.618 87.3017C143.143 43.1699 190.917 3.98906 258.493 1.11621C311.595 -1.14539 355.374 17.0697 377.041 51.2382C377.251 51.5729 377.568 51.8709 377.968 52.1108C378.369 52.3506 378.842 52.5265 379.356 52.6258C379.869 52.7251 380.409 52.7453 380.938 52.6851C381.466 52.6249 381.97 52.4857 382.413 52.2774C432.585 28.8056 487.329 52.3691 503.358 87.8824C503.733 88.7152 504.52 89.4311 505.583 89.9058C506.645 90.3804 507.916 90.5837 509.174 90.4802C523.027 89.2985 536.406 89.6855 549.311 91.6415Z" fill="#F1F1F1"/>
</svg>
