<svg width="434" height="147" viewBox="0 0 434 147" fill="none" xmlns="http://www.w3.org/2000/svg">
<path d="M428.311 131.934L433.24 141.09C434.808 143.965 433.95 145.402 430.664 145.402C276.642 145.268 150.414 143.002 -29.7599 146.735C-52.5814 147.21 -80.3607 147.046 -113.098 146.246C-117.568 146.157 -120.069 143.891 -120.602 139.446L-120.912 136.601C-121.475 131.771 -119.329 129.311 -114.474 129.222L-60.1293 128.466L9.31175 129.356C11.8277 129.385 13.2633 128.141 13.6185 125.622C22.1432 61.4364 69.9172 4.45186 137.493 0.273588C190.595 -3.01569 234.374 23.4763 256.041 73.1711C256.251 73.6579 256.568 74.0912 256.968 74.4401C257.369 74.7889 257.842 75.0447 258.356 75.1891C258.869 75.3335 259.409 75.363 259.938 75.2754C260.466 75.1878 260.97 74.9854 261.413 74.6825C311.585 40.5451 366.329 74.8158 382.358 126.466C382.733 127.678 383.52 128.719 384.583 129.409C385.645 130.099 386.916 130.395 388.174 130.245C402.027 128.526 415.406 129.089 428.311 131.934Z" fill="#F1F1F1"/>
</svg>
