<svg width="638" height="167" viewBox="0 0 638 167" fill="none" xmlns="http://www.w3.org/2000/svg">
<path d="M177.287 99.0941C205.93 -17.037 373.716 -42.0355 416.304 83.2661C416.577 84.071 417.158 84.7359 417.921 85.1159C418.684 85.4958 419.567 85.5598 420.377 85.2941C475.671 67.3939 505.864 97.8597 523.306 144.638C523.83 146.041 524.761 147.254 525.977 148.119C527.193 148.984 528.638 149.461 530.124 149.488L628.405 151.384C633.658 151.502 636.742 154.132 637.657 159.276L637.923 160.731C638.044 161.387 638.022 162.061 637.857 162.708C637.693 163.354 637.391 163.958 636.97 164.477C636.55 164.996 636.021 165.419 635.422 165.716C634.822 166.013 634.165 166.177 633.496 166.198C571.96 168.094 499.843 164.831 450.349 164.743C180.475 164.39 -87.3176 167.432 -359.316 166.947C-364.806 166.947 -367.668 164.214 -367.904 158.747L-367.993 156.807C-368.035 155.901 -367.892 154.997 -367.572 154.148C-367.253 153.298 -366.764 152.523 -366.135 151.867C-365.506 151.212 -364.75 150.691 -363.913 150.335C-363.075 149.979 -362.174 149.796 -361.264 149.797L41.7752 150.149C42.6914 150.147 43.5836 149.855 44.3233 149.317C45.0629 148.778 45.6122 148.02 45.8926 147.151C63.5123 93.4508 123.676 63.6905 173.215 100.549C173.559 100.8 173.961 100.963 174.383 101.024C174.806 101.085 175.237 101.042 175.639 100.898C176.041 100.755 176.401 100.515 176.689 100.201C176.976 99.8861 177.182 99.5061 177.287 99.0941Z" fill="#F1F1F1"/>
</svg>
