<svg width="1440" height="225" viewBox="0 0 1440 225" fill="none" xmlns="http://www.w3.org/2000/svg">
<rect width="1440" height="225" fill="#333333"/>
<path d="M550.797 38H511.203C506.68 38 503 41.6803 503 46.2031V85.7969C503 90.3197 506.68 94 511.203 94H527.719V74.2031H521.156V64.3594H527.719V57.6875C527.719 52.2593 532.134 47.8438 537.562 47.8438H547.516V57.6875H537.562V64.3594H547.516L545.875 74.2031H537.562V94H550.797C555.32 94 559 90.3197 559 85.7969V46.2031C559 41.6803 555.32 38 550.797 38Z" fill="white"/>
<path d="M928.797 38H889.203C884.68 38 881 41.6803 881 46.2031V85.7969C881 90.3197 884.68 94 889.203 94H928.797C933.32 94 937 90.3197 937 85.7969V46.2031C937 41.6803 933.32 38 928.797 38ZM900.797 82.4062H894.234V59.4375H900.797V82.4062ZM900.797 56.1562H894.234V49.5938H900.797V56.1562ZM923.766 82.4062H917.203V69.2812C917.203 67.4723 915.731 66 913.922 66C912.113 66 910.641 67.4723 910.641 69.2812V82.4062H904.078V59.4375H910.641V60.6744C912.36 60.1399 913.477 59.4375 915.562 59.4375C920.013 59.4422 923.766 63.4348 923.766 68.1533V82.4062Z" fill="white"/>
<path d="M815.056 44.6295C812.493 45.7538 809.762 46.4991 806.915 46.8609C809.844 45.112 812.08 42.3637 813.131 39.0511C810.4 40.6794 807.384 41.8295 804.171 42.4714C801.578 39.7102 797.882 38 793.85 38C786.027 38 779.729 44.3495 779.729 52.1335C779.729 53.2535 779.824 54.3305 780.056 55.3557C768.309 54.7828 757.915 49.1526 750.932 40.576C749.713 42.6911 748.998 45.112 748.998 47.7182C748.998 52.6117 751.518 56.9495 755.274 59.4609C753.004 59.4178 750.777 58.7588 748.89 57.7206C748.89 57.7637 748.89 57.8197 748.89 57.8757C748.89 64.7422 753.788 70.4455 760.211 71.7594C759.061 72.0738 757.807 72.2246 756.506 72.2246C755.602 72.2246 754.688 72.1729 753.831 71.9834C755.662 77.5791 760.857 81.6929 767.034 81.8265C762.227 85.5871 756.123 87.8529 749.515 87.8529C748.356 87.8529 747.245 87.8012 746.133 87.6591C752.392 91.6954 759.81 94 767.81 94C793.811 94 808.026 72.4615 808.026 53.792C808.026 53.1674 808.005 52.5643 807.975 51.9655C810.779 49.9754 813.135 47.4898 815.056 44.6295Z" fill="white"/>
<path d="M665.346 38H640.254C631.733 38 624.8 44.9328 624.8 53.454V78.546C624.8 87.0675 631.733 94 640.254 94H665.346C673.868 94 680.8 87.0672 680.8 78.546V53.454C680.8 44.9328 673.868 38 665.346 38ZM675.832 78.546C675.832 84.3278 671.128 89.0314 665.346 89.0314H640.254C634.472 89.0317 629.769 84.3278 629.769 78.546V53.454C629.769 47.6725 634.472 42.9686 640.254 42.9686H665.346C671.128 42.9686 675.831 47.6725 675.831 53.454V78.546H675.832Z" fill="white"/>
<path d="M652.8 51.5709C644.843 51.5709 638.37 58.044 638.37 66.0007C638.37 73.9571 644.843 80.4298 652.8 80.4298C660.756 80.4298 667.229 73.9571 667.229 66.0007C667.229 58.044 660.756 51.5709 652.8 51.5709ZM652.8 75.4609C647.583 75.4609 643.338 71.2171 643.338 66.0004C643.338 60.7834 647.583 56.5392 652.8 56.5392C658.017 56.5392 662.261 60.7834 662.261 66.0004C662.261 71.2171 658.016 75.4609 652.8 75.4609Z" fill="white"/>
<path d="M667.835 47.3579C666.878 47.3579 665.937 47.7455 665.261 48.4245C664.582 49.1002 664.191 50.0409 664.191 51.0015C664.191 51.9592 664.582 52.8995 665.261 53.5786C665.937 54.2543 666.878 54.6452 667.835 54.6452C668.796 54.6452 669.733 54.2543 670.412 53.5786C671.091 52.8995 671.479 51.9588 671.479 51.0015C671.479 50.0409 671.091 49.1002 670.412 48.4245C669.736 47.7455 668.796 47.3579 667.835 47.3579Z" fill="white"/>
</svg>
