<svg width="583" height="167" viewBox="0 0 583 167" fill="none" xmlns="http://www.w3.org/2000/svg">
<path d="M122.287 99.0941C150.93 -17.037 318.716 -42.0355 361.304 83.2661C361.577 84.071 362.158 84.7359 362.921 85.1159C363.684 85.4958 364.567 85.5598 365.377 85.2941C420.671 67.3939 450.864 97.8597 468.306 144.638C468.83 146.041 469.761 147.254 470.977 148.119C472.193 148.984 473.638 149.461 475.124 149.488L573.405 151.384C578.658 151.502 581.742 154.132 582.657 159.276L582.923 160.731C583.044 161.387 583.022 162.061 582.857 162.708C582.693 163.354 582.391 163.958 581.97 164.477C581.55 164.996 581.021 165.419 580.422 165.716C579.822 166.013 579.165 166.177 578.496 166.198C516.96 168.094 444.843 164.831 395.349 164.743C125.475 164.39 -142.318 167.432 -414.316 166.947C-419.806 166.947 -422.668 164.214 -422.904 158.747L-422.993 156.807C-423.035 155.901 -422.892 154.997 -422.572 154.148C-422.253 153.298 -421.764 152.523 -421.135 151.867C-420.506 151.212 -419.75 150.691 -418.913 150.335C-418.075 149.979 -417.174 149.796 -416.264 149.797L-13.2248 150.149C-12.3086 150.147 -11.4164 149.855 -10.6767 149.317C-9.93713 148.778 -9.38785 148.02 -9.10739 147.151C8.5123 93.4508 68.6761 63.6905 118.215 100.549C118.559 100.8 118.961 100.963 119.383 101.024C119.806 101.085 120.237 101.042 120.639 100.898C121.041 100.755 121.401 100.515 121.689 100.201C121.976 99.8861 122.182 99.5061 122.287 99.0941Z" fill="#F1F1F1"/>
</svg>
