<svg width="656" height="167" viewBox="0 0 656 167" fill="none" xmlns="http://www.w3.org/2000/svg">
<path d="M545.287 99.0941C573.93 -17.037 741.716 -42.0355 784.304 83.2661C784.577 84.071 785.158 84.7359 785.921 85.1159C786.684 85.4958 787.567 85.5598 788.377 85.2941C843.671 67.3939 873.864 97.8597 891.306 144.638C891.83 146.041 892.761 147.254 893.977 148.119C895.193 148.984 896.638 149.461 898.124 149.488L996.405 151.384C1001.66 151.502 1004.74 154.132 1005.66 159.276L1005.92 160.731C1006.04 161.387 1006.02 162.061 1005.86 162.708C1005.69 163.354 1005.39 163.958 1004.97 164.477C1004.55 164.996 1004.02 165.419 1003.42 165.716C1002.82 166.013 1002.17 166.177 1001.5 166.198C939.96 168.094 867.843 164.831 818.349 164.743C548.475 164.39 280.682 167.432 8.684 166.947C3.19445 166.947 0.331878 164.214 0.0957684 158.747L0.00714082 156.807C-0.0347848 155.901 0.108233 154.997 0.427581 154.148C0.74693 153.298 1.23599 152.523 1.86508 151.867C2.49416 151.212 3.24996 150.691 4.08725 150.335C4.92455 149.979 5.82598 149.796 6.73635 149.797L409.775 150.149C410.691 150.147 411.584 149.855 412.323 149.317C413.063 148.778 413.612 148.02 413.893 147.151C431.512 93.4508 491.676 63.6905 541.215 100.549C541.559 100.8 541.961 100.963 542.383 101.024C542.806 101.085 543.237 101.042 543.639 100.898C544.041 100.755 544.401 100.515 544.689 100.201C544.976 99.8861 545.182 99.5061 545.287 99.0941Z" fill="#F1F1F1"/>
</svg>
