<svg width="509" height="102" viewBox="0 0 509 102" fill="none" xmlns="http://www.w3.org/2000/svg">
<path d="M549.311 90.8164L554.24 97.1123C555.808 99.0887 554.95 100.077 551.664 100.077C397.642 99.9851 271.414 98.4265 91.2401 100.994C68.4186 101.32 40.6393 101.208 7.90192 100.657C3.43235 100.596 0.931178 99.0377 0.398383 95.9814L0.0875866 94.0255C-0.474809 90.7044 1.67116 89.0133 6.52552 88.9522L60.8707 88.4326L130.312 89.0438C132.828 89.0642 134.263 88.2085 134.618 86.4766C143.143 42.3448 190.917 3.16399 258.493 0.291138C311.595 -1.97047 355.374 16.2446 377.041 50.4132C377.251 50.7479 377.568 51.0458 377.968 51.2857C378.369 51.5255 378.842 51.7014 379.356 51.8007C379.869 51.9 380.409 51.9203 380.938 51.86C381.466 51.7998 381.97 51.6606 382.413 51.4524C432.585 27.9806 487.329 51.544 503.358 87.0573C503.733 87.8901 504.52 88.6061 505.583 89.0807C506.645 89.5553 507.916 89.7586 509.174 89.6551C523.027 88.4734 536.406 88.8604 549.311 90.8164Z" fill="#F1F1F1"/>
</svg>
