<svg width="509" height="102" viewBox="0 0 509 102" fill="none" xmlns="http://www.w3.org/2000/svg">
<path d="M549.311 91.1323L554.24 97.4282C555.808 99.4046 554.95 100.393 551.664 100.393C397.642 100.301 271.414 98.7424 91.2401 101.31C68.4186 101.636 40.6393 101.523 7.90192 100.973C3.43235 100.912 0.931178 99.3536 0.398383 96.2973L0.0875866 94.3414C-0.474809 91.0203 1.67116 89.3292 6.52552 89.2681L60.8707 88.7485L130.312 89.3598C132.828 89.3801 134.263 88.5244 134.618 86.7925C143.143 42.6607 190.917 3.4799 258.493 0.607056C311.595 -1.65455 355.374 16.5605 377.041 50.7291C377.251 51.0638 377.568 51.3617 377.968 51.6016C378.369 51.8415 378.842 52.0173 379.356 52.1166C379.869 52.2159 380.409 52.2362 380.938 52.1759C381.466 52.1157 381.97 51.9765 382.413 51.7683C432.585 28.2965 487.329 51.8599 503.358 87.3732C503.733 88.2061 504.52 88.922 505.583 89.3966C506.645 89.8712 507.916 90.0745 509.174 89.971C523.027 88.7893 536.406 89.1763 549.311 91.1323Z" fill="#F1F1F1"/>
</svg>
