<svg width="1440" height="570" viewBox="0 0 1440 570" fill="none" xmlns="http://www.w3.org/2000/svg">
<path d="M1715.88 556.297C1712.47 565.343 1707.27 569.911 1700.29 570L1127.96 567.464L998.549 560.746C997.217 560.687 996.032 560.242 994.996 559.411C992.094 557.068 988.882 555.629 985.359 555.095C985.093 555.066 984.944 554.917 984.915 554.651C984.885 554.087 984.781 553.597 984.604 553.182C984.278 552.47 983.745 552.218 983.005 552.426C980.252 553.138 978.12 552.411 976.61 550.246C975.836 549.125 974.669 548.319 973.324 547.977C967.224 546.464 961.007 546.108 954.671 546.909C953.19 547.107 951.693 546.724 950.496 545.841C940.104 538.322 928.335 541.125 919.586 539.523C890.408 534.14 868.203 528.4 844.354 521.504C834.895 518.79 824.946 518.256 816.109 514.919C779.869 501.305 746.25 487.735 707.346 482.975C675.222 479.089 645.63 471.244 618.569 459.439C587.392 445.854 561.027 434.835 539.473 426.381C526.179 421.131 510.857 416.682 493.507 413.034C477.816 409.742 462.183 406.227 446.609 402.489C406.995 392.968 370.533 375.973 333.228 360C325.812 356.841 319.416 358.576 311.733 355.239C311.2 355.002 310.816 354.691 310.579 354.305C310.283 353.86 310.12 353.371 310.09 352.837C310.061 351.977 309.646 351.398 308.847 351.102L294.324 345.184C293.643 344.917 292.962 344.71 292.281 344.561C290.89 344.324 289.72 343.672 288.773 342.604C287.796 341.447 286.582 340.646 285.131 340.201C278.736 338.273 272.43 336.123 266.212 333.75C266.094 333.72 266.02 333.75 265.99 333.839C265.842 334.254 265.738 334.699 265.679 335.174C265.62 335.767 265.383 335.841 264.969 335.396C260.942 331.006 255.983 328.737 250.091 328.589C248.699 328.53 247.826 327.818 247.471 326.453C247.204 325.356 246.582 324.985 245.605 325.341C244.362 325.816 243.429 325.475 242.807 324.318C239.921 318.934 235.746 320.358 231.749 318.89C218.219 313.966 204.555 309.472 190.758 305.409C162.823 297.222 135.733 286.411 107.532 278.447C98.1166 275.778 88.5682 270.528 78.3093 267.814C77.2434 267.547 76.222 267.65 75.2449 268.125L73.9126 268.837C72.521 269.519 71.1443 269.519 69.7824 268.837C47.9914 257.655 24.8977 253.606 0.501263 256.691C-2.34104 257.047 -4.65036 259.093 -7.84795 259.538C-9.18028 259.686 -10.2166 260.324 -10.9568 261.451C-15.9308 269.104 -19.4984 277.305 -21.6598 286.055C-21.7533 286.413 -21.951 286.736 -22.2277 286.981C-22.5045 287.227 -22.8478 287.385 -23.2142 287.434L-24.8574 287.612C-25.2366 287.661 -25.5881 287.837 -25.8543 288.112C-26.1206 288.387 -26.2858 288.744 -26.3229 289.125C-26.9891 295.888 -29.787 301.227 -30.8085 308.256C-31.3414 311.697 -32.6293 314.856 -34.6722 317.733C-35.5012 318.89 -35.8861 320.18 -35.8269 321.604C-35.6492 326.083 -37.7069 329.019 -42 330.413C-18.7287 225.413 45.4895 138.699 131.292 75.0317C277.404 -33.4386 482.716 -21.2924 621.011 92.0275C633.891 102.587 650.781 120.161 671.684 144.75C705.229 184.258 730.233 228.335 746.694 276.979C746.982 277.848 747.596 278.569 748.403 278.985C749.209 279.402 750.144 279.48 751.002 279.203C867.137 242.053 995.129 317.822 1024.84 434.701C1024.98 435.222 1025.23 435.706 1025.57 436.119C1025.92 436.532 1026.35 436.863 1026.84 437.088C1027.33 437.314 1027.86 437.428 1028.4 437.423C1028.93 437.418 1029.46 437.294 1029.95 437.059C1066.41 419.085 1102.16 420.686 1140.22 436.659C1190.46 457.748 1226.82 494.379 1249.29 546.553C1249.9 547.965 1250.91 549.168 1252.2 550.014C1253.48 550.86 1254.99 551.312 1256.53 551.314C1408.51 551.966 1560.75 552.203 1713.25 552.025C1715.48 552.025 1716.35 553.449 1715.88 556.297Z" fill="#F1F1F1"/>
</svg>
