<svg width="108" height="111" viewBox="0 0 108 111" fill="none" xmlns="http://www.w3.org/2000/svg">
<path d="M103.661 99.2724L107.363 106.154C108.542 108.315 107.897 109.395 105.429 109.395C-10.2779 109.295 -105.105 107.591 -240.457 110.397C-257.602 110.754 -278.47 110.631 -303.064 110.03C-306.422 109.963 -308.3 108.259 -308.701 104.918L-308.934 102.78C-309.357 99.15 -307.745 97.3014 -304.098 97.2346L-263.272 96.6666L-211.105 97.3348C-209.215 97.3571 -208.137 96.4217 -207.87 94.5286C-201.466 46.2879 -165.577 3.45923 -114.811 0.318906C-74.9189 -2.15326 -42.0314 17.7577 -25.7544 55.1075C-25.596 55.4733 -25.358 55.799 -25.0573 56.0612C-24.7567 56.3234 -24.4008 56.5157 -24.0152 56.6242C-23.6296 56.7327 -23.2237 56.7549 -22.8267 56.6891C-22.4297 56.6232 -22.0512 56.4711 -21.7185 56.2434C15.9721 30.5863 57.0983 56.3436 69.1393 95.1633C69.4211 96.0737 70.0126 96.8563 70.8109 97.3751C71.6092 97.8939 72.5638 98.1161 73.5087 98.003C83.9153 96.7113 93.9661 97.1343 103.661 99.2724Z" fill="#F1F1F1"/>
</svg>
