<svg width="732" height="196" viewBox="0 0 732 196" fill="none" xmlns="http://www.w3.org/2000/svg">
<path d="M723.259 175.339L730.591 187.463C732.925 191.269 731.648 193.172 726.76 193.172C497.607 192.995 309.806 189.994 41.7459 194.938C7.79245 195.565 -33.5374 195.349 -82.2436 194.29C-88.8934 194.172 -92.6146 191.171 -93.4073 185.286L-93.8697 181.519C-94.7064 175.124 -91.5137 171.867 -84.2914 171.749L-3.43729 170.749L99.8763 171.926C103.62 171.965 105.755 170.317 106.284 166.982C118.967 81.9974 190.044 6.54684 290.584 1.01459C369.588 -3.34058 434.721 31.7362 466.957 97.5346C467.27 98.1792 467.742 98.7529 468.337 99.2149C468.932 99.6768 469.637 100.015 470.401 100.207C471.165 100.398 471.968 100.437 472.755 100.321C473.541 100.205 474.291 99.9369 474.95 99.5358C549.594 54.3362 631.043 99.7123 654.89 168.1C655.448 169.704 656.619 171.083 658.2 171.997C659.781 172.911 661.672 173.302 663.543 173.103C684.153 170.827 704.058 171.573 723.259 175.339Z" fill="#F1F1F1"/>
</svg>
