<svg width="417" height="111" viewBox="0 0 417 111" fill="none" xmlns="http://www.w3.org/2000/svg">
<path d="M412.661 99.2724L416.363 106.154C417.542 108.315 416.897 109.395 414.429 109.395C298.722 109.295 203.895 107.591 68.5426 110.397C51.3984 110.754 30.5296 110.631 5.93619 110.03C2.5785 109.963 0.699533 108.259 0.299279 104.918L0.065798 102.78C-0.356692 99.15 1.25543 97.3014 4.90219 97.2346L45.7281 96.6666L97.8946 97.3348C99.7847 97.3571 100.863 96.4217 101.13 94.5286C107.534 46.2879 143.423 3.45923 194.189 0.318906C234.081 -2.15326 266.969 17.7577 283.246 55.1075C283.404 55.4733 283.642 55.799 283.943 56.0612C284.243 56.3234 284.599 56.5157 284.985 56.6242C285.37 56.7327 285.776 56.7549 286.173 56.6891C286.57 56.6232 286.949 56.4711 287.282 56.2434C324.972 30.5863 366.098 56.3436 378.139 95.1633C378.421 96.0737 379.013 96.8563 379.811 97.3751C380.609 97.8939 381.564 98.1161 382.509 98.003C392.915 96.7113 402.966 97.1343 412.661 99.2724Z" fill="#F1F1F1"/>
</svg>
