<svg width="147" height="81" viewBox="0 0 147 81" fill="none" xmlns="http://www.w3.org/2000/svg">
<path d="M143.805 71.9789L146.495 76.9549C147.351 78.5169 146.882 79.2979 145.089 79.2979C61.0263 79.2254 -7.86694 77.9935 -106.203 80.0226C-118.658 80.2802 -133.82 80.1916 -151.687 79.7568C-154.127 79.7085 -155.492 78.4766 -155.783 76.0611L-155.952 74.5152C-156.259 71.8904 -155.088 70.5538 -152.438 70.5055L-122.778 70.0948L-84.8781 70.578C-83.5049 70.5941 -82.7214 69.9177 -82.5275 68.549C-77.8749 33.6692 -51.8006 2.70245 -14.9186 0.431877C14.0635 -1.35559 37.9569 13.0408 49.7824 40.046C49.8974 40.3106 50.0703 40.5461 50.2888 40.7356C50.5072 40.9252 50.7657 41.0642 51.0459 41.1427C51.3261 41.2212 51.6209 41.2372 51.9094 41.1896C52.1978 41.142 52.4728 41.032 52.7145 40.8674C80.0973 22.3163 109.976 40.9398 118.724 69.0079C118.929 69.6661 119.359 70.232 119.939 70.6071C120.518 70.9822 121.212 71.1429 121.898 71.0611C129.459 70.1271 136.761 70.433 143.805 71.9789Z" fill="#F1F1F1"/>
</svg>
