<svg width="450" height="147" viewBox="0 0 450 147" fill="none" xmlns="http://www.w3.org/2000/svg">
<path d="M444.311 131.934L449.24 141.09C450.808 143.965 449.95 145.402 446.664 145.402C292.642 145.268 166.414 143.002 -13.7599 146.735C-36.5814 147.21 -64.3607 147.046 -97.0981 146.246C-101.568 146.157 -104.069 143.891 -104.602 139.446L-104.912 136.601C-105.475 131.771 -103.329 129.311 -98.4745 129.222L-44.1293 128.466L25.3118 129.356C27.8277 129.385 29.2633 128.141 29.6185 125.622C38.1432 61.4364 85.9172 4.45186 153.493 0.273588C206.595 -3.01569 250.374 23.4763 272.041 73.1711C272.251 73.6579 272.568 74.0912 272.968 74.4401C273.369 74.7889 273.842 75.0447 274.356 75.1891C274.869 75.3335 275.409 75.363 275.938 75.2754C276.466 75.1878 276.97 74.9854 277.413 74.6825C327.585 40.5451 382.329 74.8158 398.358 126.466C398.733 127.678 399.52 128.719 400.583 129.409C401.645 130.099 402.916 130.395 404.174 130.245C418.027 128.526 431.406 129.089 444.311 131.934Z" fill="#F1F1F1"/>
</svg>
