<svg width="368" height="111" viewBox="0 0 368 111" fill="none" xmlns="http://www.w3.org/2000/svg">
<path d="M363.661 99.2724L367.363 106.154C368.542 108.315 367.897 109.395 365.429 109.395C249.722 109.295 154.895 107.591 19.5426 110.397C2.3984 110.754 -18.4704 110.631 -43.0638 110.03C-46.4215 109.963 -48.3005 108.259 -48.7007 104.918L-48.9342 102.78C-49.3567 99.15 -47.7446 97.3014 -44.0978 97.2346L-3.27188 96.6666L48.8946 97.3348C50.7847 97.3571 51.8631 96.4217 52.13 94.5286C58.534 46.2879 94.4235 3.45923 145.189 0.318906C185.081 -2.15326 217.969 17.7577 234.246 55.1075C234.404 55.4733 234.642 55.799 234.943 56.0612C235.243 56.3234 235.599 56.5157 235.985 56.6242C236.37 56.7327 236.776 56.7549 237.173 56.6891C237.57 56.6232 237.949 56.4711 238.282 56.2434C275.972 30.5863 317.098 56.3436 329.139 95.1633C329.421 96.0737 330.013 96.8563 330.811 97.3751C331.609 97.8939 332.564 98.1161 333.509 98.003C343.915 96.7113 353.966 97.1343 363.661 99.2724Z" fill="#F1F1F1"/>
</svg>
