<svg width="1139" height="313" viewBox="0 0 1139 313" fill="none" xmlns="http://www.w3.org/2000/svg">
<path d="M1139 311.259C1087.26 312.502 1053.28 313.08 1037.06 312.991C682.33 310.77 327.641 311.614 -27.0923 312.192C-27.807 312.189 -28.5014 311.954 -29.0703 311.521C-29.6391 311.088 -30.0514 310.481 -30.2445 309.793L-34.7287 293.403C-37.8365 274.925 -42.8089 256.047 -44.274 238.413C-48.8618 183.098 -44.3036 128.493 -30.5997 74.5995C-26.308 73.2078 -24.2509 70.2761 -24.4285 65.8047C-24.4877 64.3833 -24.1029 63.0952 -23.2742 61.9404C-21.2319 59.068 -19.9444 55.9143 -19.4117 52.4793C-18.3905 45.4612 -15.5935 40.1311 -14.9275 33.3796C-14.8904 32.9991 -14.7252 32.6424 -14.459 32.368C-14.1929 32.0937 -13.8414 31.9178 -13.4624 31.8693L-11.8197 31.6917C-11.4535 31.6421 -11.1102 31.4847 -10.8335 31.2395C-10.5569 30.9944 -10.3592 30.6725 -10.2658 30.3147C-8.10511 21.5792 -4.53859 13.3915 0.433899 5.75157C1.17385 4.62631 2.20984 3.98962 3.54176 3.84156C6.73836 3.39738 9.04696 1.35415 11.8884 0.998808C36.2772 -2.08084 59.3638 1.96118 81.148 13.1249C82.5096 13.806 83.8858 13.806 85.2769 13.1249L86.6089 12.4143C87.5856 11.9405 88.6068 11.8368 89.6723 12.1033C99.928 14.8128 109.473 20.0541 118.886 22.7192C147.078 30.6701 174.16 41.4636 202.086 49.6365C215.879 53.6934 229.538 58.1796 243.065 63.0952C247.06 64.561 251.234 63.1396 254.119 68.5142C254.741 69.6691 255.673 70.0097 256.917 69.5359C257.893 69.1805 258.515 69.5507 258.781 70.6463C259.136 72.0085 260.01 72.7191 261.401 72.7784C267.291 72.9264 272.248 75.1917 276.274 79.5743C276.688 80.0185 276.925 79.9445 276.984 79.3522C277.043 78.8784 277.147 78.4342 277.295 78.0197C277.324 77.9308 277.398 77.9013 277.517 77.9309C283.732 80.2998 290.037 82.4467 296.43 84.3715C297.88 84.8157 299.094 85.6152 300.071 86.7701C301.018 87.8361 302.187 88.4876 303.578 88.7245C304.259 88.8726 304.94 89.0798 305.62 89.3463L320.138 95.254C320.937 95.5501 321.352 96.1274 321.381 96.9862C321.411 97.5192 321.574 98.0077 321.87 98.4519C322.106 98.8369 322.491 99.1479 323.024 99.3848C330.705 102.716 337.098 100.984 344.512 104.138C381.806 120.084 418.256 137.051 457.858 146.557C473.427 150.288 489.055 153.797 504.742 157.084C522.086 160.726 537.403 165.168 550.693 170.409C572.24 178.849 598.597 189.849 629.764 203.412C656.817 215.197 686.4 223.03 718.514 226.909C757.406 231.662 791.015 245.209 827.243 258.801C836.078 262.132 846.023 262.665 855.48 265.375C879.321 272.26 901.519 277.99 930.688 283.364C939.435 284.963 951.2 282.165 961.589 289.672C962.785 290.554 964.281 290.936 965.762 290.738C972.096 289.938 978.312 290.294 984.409 291.804C985.754 292.146 986.921 292.95 987.694 294.069C989.204 296.231 991.335 296.956 994.088 296.246C994.828 296.038 995.36 296.29 995.686 297.001C995.863 297.415 995.967 297.904 995.997 298.466C996.026 298.733 996.174 298.881 996.441 298.911C999.963 299.444 1003.17 300.88 1006.07 303.219C1007.11 304.048 1008.29 304.492 1009.63 304.552L1139 311.259Z" fill="#F1F1F1"/>
</svg>
