<svg width="1037" height="313" viewBox="0 0 1037 313" fill="none" xmlns="http://www.w3.org/2000/svg">
<path d="M1037 311.259C985.262 312.502 951.284 313.08 935.064 312.991C580.33 310.77 225.641 311.614 -129.092 312.192C-129.807 312.189 -130.501 311.954 -131.07 311.521C-131.639 311.088 -132.051 310.481 -132.245 309.793L-136.729 293.403C-139.836 274.925 -144.809 256.047 -146.274 238.413C-150.862 183.098 -146.304 128.493 -132.6 74.5995C-128.308 73.2078 -126.251 70.2761 -126.428 65.8047C-126.488 64.3833 -126.103 63.0952 -125.274 61.9404C-123.232 59.068 -121.944 55.9143 -121.412 52.4793C-120.391 45.4612 -117.593 40.1311 -116.927 33.3796C-116.89 32.9991 -116.725 32.6424 -116.459 32.368C-116.193 32.0937 -115.841 31.9178 -115.462 31.8693L-113.82 31.6917C-113.453 31.6421 -113.11 31.4847 -112.834 31.2395C-112.557 30.9944 -112.359 30.6725 -112.266 30.3147C-110.105 21.5792 -106.539 13.3915 -101.566 5.75157C-100.826 4.62631 -99.7902 3.98962 -98.4582 3.84156C-95.2616 3.39738 -92.953 1.35415 -90.1116 0.998808C-65.7228 -2.08084 -42.6362 1.96118 -20.852 13.1249C-19.4904 13.806 -18.1142 13.806 -16.7231 13.1249L-15.3911 12.4143C-14.4144 11.9405 -13.3932 11.8368 -12.3277 12.1033C-2.07196 14.8128 7.47345 20.0541 16.8857 22.7192C45.0779 30.6701 72.1601 41.4636 100.086 49.6365C113.879 53.6934 127.538 58.1796 141.065 63.0952C145.06 64.561 149.234 63.1396 152.119 68.5142C152.741 69.6691 153.673 70.0097 154.917 69.5359C155.893 69.1805 156.515 69.5507 156.781 70.6463C157.136 72.0085 158.01 72.7191 159.401 72.7784C165.291 72.9264 170.248 75.1917 174.274 79.5743C174.688 80.0185 174.925 79.9445 174.984 79.3522C175.043 78.8784 175.147 78.4342 175.295 78.0197C175.324 77.9308 175.398 77.9013 175.517 77.9309C181.732 80.2998 188.037 82.4467 194.43 84.3715C195.88 84.8157 197.094 85.6152 198.071 86.7701C199.018 87.8361 200.187 88.4876 201.578 88.7245C202.259 88.8726 202.94 89.0798 203.62 89.3463L218.138 95.254C218.937 95.5501 219.352 96.1274 219.381 96.9862C219.411 97.5192 219.574 98.0077 219.87 98.4519C220.106 98.8369 220.491 99.1479 221.024 99.3848C228.705 102.716 235.098 100.984 242.512 104.138C279.806 120.084 316.256 137.051 355.858 146.557C371.427 150.288 387.055 153.797 402.742 157.084C420.086 160.726 435.403 165.168 448.693 170.409C470.24 178.849 496.597 189.849 527.764 203.412C554.817 215.197 584.4 223.03 616.514 226.909C655.406 231.662 689.015 245.209 725.243 258.801C734.078 262.132 744.023 262.665 753.48 265.375C777.321 272.26 799.519 277.99 828.688 283.364C837.435 284.963 849.2 282.165 859.589 289.672C860.785 290.554 862.281 290.936 863.762 290.738C870.096 289.938 876.312 290.294 882.409 291.804C883.754 292.146 884.921 292.95 885.694 294.069C887.204 296.231 889.335 296.956 892.088 296.246C892.828 296.038 893.36 296.29 893.686 297.001C893.863 297.415 893.967 297.904 893.997 298.466C894.026 298.733 894.174 298.881 894.441 298.911C897.963 299.444 901.174 300.88 904.075 303.219C905.111 304.048 906.295 304.492 907.627 304.552L1037 311.259Z" fill="#F1F1F1"/>
</svg>
