<svg width="961" height="310" viewBox="0 0 961 310" fill="none" xmlns="http://www.w3.org/2000/svg">
<path d="M960.068 302.02C958.211 306.932 955.375 309.411 951.563 309.46L639.278 308.083L568.664 304.436C567.937 304.403 567.291 304.162 566.725 303.711C565.142 302.439 563.389 301.658 561.467 301.368C561.321 301.352 561.241 301.271 561.224 301.126C561.208 300.82 561.152 300.555 561.055 300.329C560.877 299.943 560.586 299.806 560.182 299.919C558.68 300.305 557.517 299.911 556.693 298.735C556.271 298.127 555.634 297.689 554.9 297.503C551.572 296.682 548.179 296.489 544.722 296.923C543.914 297.031 543.097 296.823 542.444 296.344C536.774 292.261 530.352 293.783 525.578 292.914C509.658 289.991 497.541 286.875 484.528 283.131C479.367 281.657 473.939 281.368 469.116 279.556C449.343 272.164 430.999 264.797 409.771 262.213C392.243 260.103 376.096 255.844 361.33 249.435C344.319 242.059 329.933 236.077 318.172 231.488C310.918 228.637 302.558 226.222 293.091 224.241C284.529 222.454 275.999 220.545 267.501 218.516C245.886 213.347 225.991 204.12 205.636 195.448C201.589 193.733 198.099 194.675 193.907 192.864C193.616 192.735 193.406 192.566 193.277 192.356C193.115 192.115 193.027 191.849 193.01 191.559C192.994 191.092 192.768 190.778 192.332 190.617L184.408 187.405C184.036 187.26 183.665 187.147 183.293 187.067C182.534 186.938 181.896 186.583 181.379 186.004C180.846 185.376 180.183 184.941 179.392 184.699C175.902 183.653 172.461 182.485 169.069 181.197C169.004 181.181 168.964 181.197 168.947 181.245C168.867 181.471 168.81 181.712 168.778 181.97C168.746 182.292 168.616 182.332 168.39 182.091C166.193 179.707 163.487 178.475 160.272 178.395C159.513 178.363 159.036 177.976 158.842 177.235C158.697 176.64 158.358 176.438 157.825 176.632C157.146 176.889 156.637 176.704 156.298 176.076C154.723 173.153 152.445 173.926 150.264 173.129C142.881 170.456 135.426 168.016 127.897 165.81C112.655 161.366 97.8733 155.496 82.4856 151.172C77.3483 149.723 72.1383 146.873 66.5406 145.399C65.959 145.254 65.4016 145.311 64.8685 145.568L64.1415 145.955C63.3822 146.325 62.6311 146.325 61.8879 145.955C49.9978 139.884 37.3969 137.686 24.0851 139.36C22.5342 139.554 21.2741 140.665 19.5294 140.906C18.8024 140.987 18.237 141.333 17.8331 141.945C15.119 146.1 13.1724 150.552 11.9931 155.303C11.942 155.497 11.8342 155.672 11.6832 155.806C11.5322 155.939 11.3448 156.025 11.1449 156.052L10.2483 156.148C10.0414 156.174 9.84959 156.27 9.70432 156.419C9.55904 156.569 9.4689 156.762 9.44863 156.969C9.08514 160.641 7.55846 163.54 7.00111 167.356C6.71032 169.224 6.00759 170.939 4.89289 172.501C4.44055 173.129 4.23055 173.83 4.26286 174.603C4.35979 177.034 3.23701 178.628 0.894531 179.385C13.5924 122.379 48.6327 75.3014 95.45 40.7356C175.175 -18.1542 287.202 -11.5599 362.663 49.9629C369.69 55.6956 378.907 65.2368 390.312 78.5865C408.616 100.036 422.259 123.966 431.241 150.375C431.398 150.847 431.733 151.238 432.173 151.465C432.613 151.691 433.123 151.733 433.591 151.583C496.96 131.413 566.798 172.549 583.009 236.004C583.084 236.287 583.22 236.55 583.409 236.774C583.597 236.998 583.833 237.178 584.1 237.3C584.366 237.423 584.656 237.485 584.95 237.482C585.243 237.479 585.532 237.412 585.796 237.285C605.691 227.526 625.198 228.396 645.966 237.067C673.381 248.517 693.219 268.404 705.481 296.73C705.812 297.497 706.363 298.15 707.065 298.609C707.767 299.069 708.589 299.314 709.431 299.315C792.355 299.669 875.424 299.798 958.639 299.701C959.85 299.701 960.327 300.474 960.068 302.02Z" fill="#F1F1F1"/>
</svg>
