<svg width="44" height="111" viewBox="0 0 44 111" fill="none" xmlns="http://www.w3.org/2000/svg">
<path d="M39.6611 99.2724L43.3635 106.154C44.542 108.315 43.8972 109.395 41.4289 109.395C-74.2779 109.295 -169.105 107.591 -304.457 110.397C-321.602 110.754 -342.47 110.631 -367.064 110.03C-370.422 109.963 -372.3 108.259 -372.701 104.918L-372.934 102.78C-373.357 99.15 -371.745 97.3014 -368.098 97.2346L-327.272 96.6666L-275.105 97.3348C-273.215 97.3571 -272.137 96.4217 -271.87 94.5286C-265.466 46.2879 -229.577 3.45923 -178.811 0.318906C-138.919 -2.15326 -106.031 17.7577 -89.7544 55.1075C-89.596 55.4733 -89.358 55.799 -89.0573 56.0612C-88.7567 56.3234 -88.4008 56.5157 -88.0152 56.6242C-87.6296 56.7327 -87.2237 56.7549 -86.8267 56.6891C-86.4297 56.6232 -86.0512 56.4711 -85.7185 56.2434C-48.0279 30.5863 -6.90173 56.3436 5.13925 95.1633C5.42111 96.0737 6.0126 96.8563 6.81088 97.3751C7.60916 97.8939 8.56378 98.1161 9.50867 98.003C19.9153 96.7113 29.9661 97.1343 39.6611 99.2724Z" fill="#F1F1F1"/>
</svg>
