<svg width="555" height="147" viewBox="0 0 555 147" fill="none" xmlns="http://www.w3.org/2000/svg">
<path d="M549.311 131.934L554.24 141.09C555.808 143.965 554.95 145.402 551.664 145.402C397.642 145.268 271.414 143.002 91.2401 146.735C68.4186 147.21 40.6393 147.046 7.90192 146.246C3.43235 146.157 0.931178 143.891 0.398383 139.446L0.0875866 136.601C-0.474809 131.771 1.67116 129.311 6.52552 129.222L60.8707 128.466L130.312 129.356C132.828 129.385 134.263 128.141 134.618 125.622C143.143 61.4364 190.917 4.45186 258.493 0.273588C311.595 -3.01569 355.374 23.4763 377.041 73.1711C377.251 73.6579 377.568 74.0912 377.968 74.4401C378.369 74.7889 378.842 75.0447 379.356 75.1891C379.869 75.3335 380.409 75.363 380.938 75.2754C381.466 75.1878 381.97 74.9854 382.413 74.6825C432.585 40.5451 487.329 74.8158 503.358 126.466C503.733 127.678 504.52 128.719 505.583 129.409C506.645 130.099 507.916 130.395 509.174 130.245C523.027 128.526 536.406 129.089 549.311 131.934Z" fill="#F1F1F1"/>
</svg>
