<svg width="648" height="172" viewBox="0 0 648 172" fill="none" xmlns="http://www.w3.org/2000/svg">
<path d="M647.277 170.082C619.038 170.758 600.492 171.072 591.639 171.024C398.021 169.816 204.427 170.275 10.8083 170.589C10.4182 170.588 10.0392 170.46 9.72874 170.225C9.41825 169.989 9.19326 169.659 9.08783 169.285L6.64032 160.372C4.94404 150.323 2.23001 140.057 1.43033 130.468C-1.0737 100.387 1.41418 70.6924 8.89397 41.3844C11.2365 40.6275 12.3592 39.0333 12.2623 36.6017C12.23 35.8287 12.44 35.1282 12.8923 34.5002C14.007 32.9382 14.7098 31.2232 15.0006 29.3552C15.5579 25.5387 17.0846 22.6401 17.4481 18.9686C17.4683 18.7616 17.5585 18.5677 17.7038 18.4185C17.849 18.2693 18.0408 18.1736 18.2477 18.1473L19.1443 18.0507C19.3442 18.0237 19.5316 17.9381 19.6826 17.8048C19.8336 17.6715 19.9415 17.4964 19.9925 17.3019C21.1718 12.5514 23.1185 8.09882 25.8325 3.94417C26.2364 3.33224 26.8018 2.986 27.5288 2.90549C29.2736 2.66394 30.5336 1.55281 32.0845 1.35957C45.3963 -0.315177 57.9972 1.88292 69.8874 7.95387C70.6305 8.32424 71.3817 8.32424 72.141 7.95387L72.868 7.56742C73.4011 7.30976 73.9584 7.25338 74.54 7.39831C80.1377 8.87177 85.3477 11.7221 90.485 13.1714C105.873 17.4951 120.655 23.3647 135.897 27.8093C143.425 30.0154 150.881 32.4551 158.264 35.1282C160.444 35.9253 162.722 35.1524 164.297 38.0751C164.637 38.7032 165.146 38.8884 165.824 38.6307C166.357 38.4375 166.696 38.6388 166.842 39.2346C167.036 39.9753 167.512 40.3618 168.272 40.394C171.486 40.4745 174.192 41.7064 176.39 44.0897C176.616 44.3313 176.745 44.291 176.777 43.969C176.81 43.7113 176.866 43.4697 176.947 43.2443C176.963 43.196 177.003 43.1799 177.068 43.196C180.461 44.4843 183.902 45.6518 187.391 46.6985C188.183 46.94 188.845 47.3748 189.378 48.0029C189.895 48.5826 190.533 48.9369 191.293 49.0657C191.664 49.1462 192.036 49.2589 192.407 49.4038L200.331 52.6165C200.767 52.7775 200.994 53.0915 201.01 53.5585C201.026 53.8483 201.115 54.114 201.276 54.3556C201.406 54.5649 201.616 54.734 201.906 54.8629C206.099 56.6745 209.588 55.7325 213.635 57.4475C233.99 66.1191 253.885 75.3463 275.501 80.5154C283.998 82.5445 292.528 84.4527 301.09 86.2402C310.557 88.2209 318.917 90.6364 326.171 93.4867C337.932 98.0761 352.318 104.058 369.329 111.434C384.095 117.843 400.242 122.102 417.77 124.212C438.998 126.796 457.342 134.164 477.116 141.555C481.938 143.367 487.366 143.657 492.528 145.13C505.541 148.874 517.657 151.99 533.578 154.913C538.351 155.782 544.773 154.261 550.443 158.343C551.096 158.822 551.913 159.03 552.721 158.923C556.179 158.488 559.571 158.681 562.899 159.502C563.633 159.688 564.27 160.126 564.692 160.734C565.516 161.91 566.679 162.304 568.182 161.918C568.586 161.805 568.876 161.942 569.054 162.328C569.151 162.554 569.208 162.82 569.224 163.126C569.24 163.27 569.321 163.351 569.466 163.367C571.389 163.657 573.141 164.438 574.724 165.71C575.29 166.161 575.936 166.403 576.663 166.435L647.277 170.082Z" fill="#F1F1F1"/>
</svg>
