<svg width="205" height="133" viewBox="0 0 205 133" fill="none" xmlns="http://www.w3.org/2000/svg">
<path d="M57.9722 19.5977L60.7739 35.5868L64.5774 57.1996C66.0255 65.0326 67.3894 72.8083 68.6691 80.5267C68.8154 81.4214 69.2144 82.4615 69.3518 83.4751C69.671 85.8403 70.0833 88.1908 70.5886 90.5266C70.627 90.7087 70.7231 90.7484 70.8768 90.6456C70.9061 90.626 70.9311 90.6011 70.9501 90.5723C70.9692 90.5435 70.9819 90.5115 70.9876 90.4781L76.1698 59.8615L79.4769 40.2276C79.6601 39.1875 79.9985 38.143 80.492 37.0941C81.8264 34.2559 85.4836 32.7839 88.1168 34.7759C90.5905 36.649 90.79 40.2232 91.3131 43.0967L95.1122 63.9778L99.297 84.903C99.6043 86.4338 99.8112 86.4176 99.9176 84.8546C100.006 83.528 100.144 81.7607 101.513 81.1217C103.477 80.2094 104.785 82.4306 105.091 83.9026C105.664 86.6586 106.278 89.3176 106.931 91.8796L109.976 108.049C110.162 109.037 110.351 109.037 110.544 108.049L113.425 93.3075L117.565 70.3021C118.204 66.8586 118.659 64.6389 118.931 63.6429C120.061 59.4869 125.177 58.2793 127.877 61.4878C128.586 62.3295 129.122 63.8192 129.304 64.846C129.922 68.3277 130.581 71.7212 131.281 75.0266L135.67 97.6177C135.676 97.6517 135.692 97.6832 135.716 97.7081C135.74 97.733 135.771 97.7501 135.805 97.7573C135.839 97.7644 135.874 97.7612 135.906 97.7481C135.938 97.735 135.966 97.7126 135.985 97.6838C137.213 95.9077 138.937 97.3445 139.212 98.8914C139.487 100.446 139.782 101.998 140.099 103.55C141 108.753 141.922 113.958 142.865 119.164C142.909 119.417 143.026 119.496 143.215 119.402C143.256 119.382 143.292 119.352 143.32 119.315C143.348 119.279 143.366 119.236 143.375 119.191L145.804 105.238C147.045 100.302 147.546 95.9915 148.876 89.6451C149.293 87.6575 150.113 85.9211 151.904 84.9735C154.905 83.3826 158.039 84.9647 158.992 88.1864C160.593 93.6116 161.772 100.518 163.736 110.13L166.852 126.617C167.068 127.751 167.405 127.785 167.863 126.718C167.898 126.643 167.907 125.735 167.951 125.471C168.559 121.923 169.046 118.296 169.866 114.797C170.035 114.071 170.168 113.347 170.265 112.624L174.557 89.3587L178.316 68.0192C179.034 64.0219 179.632 60.1436 180.555 56.2565C180.93 54.6787 181.884 53.3756 183.418 52.3473C184.68 51.7332 185.926 51.5819 187.155 51.8934C188.801 52.3135 190.053 53.3037 190.91 54.8638C191.229 55.707 191.439 56.396 191.54 56.9308C192.63 62.7864 193.694 68.3644 194.731 73.6648L198.983 96.8068L199.98 102.329L203.061 119.526L204.24 127.772C204.228 128.03 204.166 128.261 204.054 128.463C188.999 130.312 176.838 131.676 167.57 132.558C166.22 132.684 164.231 132.706 161.603 132.624L0.870268 132.615C0.804428 132.615 0.741285 132.589 0.694729 132.541C0.648173 132.494 0.622018 132.43 0.622018 132.364L0.515625 50.0512C1.13329 48.5557 1.78791 47.1527 2.47946 45.8423C3.18283 44.5084 3.93202 43.5947 4.72701 43.1011C8.30447 40.8755 12.6932 43.2201 13.4557 47.2262C13.6182 48.0782 13.7305 48.7364 13.7926 49.2006L18.9482 74.5903C20.7214 83.3811 22.4976 92.072 24.2767 100.663C24.3506 101.016 24.5353 101.16 24.8308 101.095C24.8863 101.083 24.9369 101.055 24.9763 101.015C25.0158 100.975 25.0422 100.925 25.0525 100.87L29.7914 74.7974L33.7235 52.2724L37.0616 33.0351L39.8943 16.7859L41.2153 9.76968C41.8448 6.63178 42.0576 3.50709 44.8593 1.35198C48.0466 -1.10722 52.4619 0.0827127 54.346 3.46742C54.9902 4.62503 55.4705 6.10145 55.7867 7.89664C56.5019 11.9483 57.2304 15.8486 57.9722 19.5977ZM47.8383 11.3254L48.0067 104.343C48.0067 104.64 48.156 104.788 48.4545 104.788H48.6495C48.7146 104.788 48.7771 104.763 48.8235 104.717C48.8699 104.672 48.8966 104.61 48.8978 104.546C49.3499 85.7977 48.9598 67.0188 49.2081 48.2619C49.3706 35.9688 49.3618 23.5406 49.1815 10.9772C49.1804 10.9135 49.1655 10.8507 49.1379 10.7931C49.1103 10.7355 49.0705 10.6845 49.0213 10.6436C48.9721 10.6026 48.9147 10.5727 48.8528 10.5557C48.791 10.5388 48.7262 10.5352 48.6628 10.5453L48.4766 10.5762C48.0481 10.6438 47.8353 10.8935 47.8383 11.3254ZM186.331 66.5119C186.331 66.381 186.278 66.2555 186.185 66.1629C186.092 66.0703 185.966 66.0183 185.834 66.0183H185.808C185.676 66.0183 185.55 66.0703 185.457 66.1629C185.363 66.2555 185.311 66.381 185.311 66.5119V102.977C185.311 103.108 185.363 103.233 185.457 103.326C185.55 103.418 185.676 103.47 185.808 103.47H185.834C185.966 103.47 186.092 103.418 186.185 103.326C186.278 103.233 186.331 103.108 186.331 102.977V66.5119Z" fill="#010125"/>
</svg>
