<svg width="875" height="428" viewBox="0 0 875 428" fill="none" xmlns="http://www.w3.org/2000/svg">
<path d="M1291.91 417.711C1289.41 424.503 1285.59 427.933 1280.45 428L859.836 426.096L764.727 421.051C763.747 421.007 762.877 420.673 762.115 420.049C759.983 418.29 757.622 417.209 755.033 416.808C754.837 416.786 754.728 416.675 754.706 416.474C754.685 416.051 754.609 415.684 754.478 415.372C754.239 414.837 753.847 414.648 753.303 414.804C751.279 415.339 749.713 414.793 748.603 413.167C748.035 412.326 747.177 411.72 746.188 411.463C741.705 410.327 737.136 410.06 732.479 410.661C731.391 410.81 730.291 410.523 729.411 409.86C721.774 404.214 713.125 406.318 706.695 405.116C685.251 401.073 668.932 396.764 651.405 391.586C644.453 389.548 637.142 389.147 630.646 386.641C604.013 376.419 579.306 366.229 550.714 362.655C527.105 359.737 505.357 353.846 485.469 344.982C462.557 334.781 443.18 326.508 427.34 320.16C417.57 316.218 406.309 312.877 393.558 310.138C382.026 307.666 370.537 305.026 359.092 302.22C329.978 295.071 303.182 282.309 275.765 270.316C270.314 267.944 265.614 269.247 259.968 266.741C259.576 266.563 259.293 266.329 259.119 266.04C258.902 265.706 258.782 265.338 258.76 264.937C258.738 264.291 258.434 263.857 257.846 263.634L247.173 259.191C246.673 258.991 246.173 258.835 245.672 258.723C244.649 258.545 243.79 258.055 243.094 257.253C242.376 256.385 241.483 255.783 240.417 255.449C235.717 254.002 231.083 252.387 226.513 250.605C226.426 250.583 226.372 250.605 226.35 250.672C226.241 250.984 226.165 251.318 226.121 251.674C226.078 252.12 225.904 252.175 225.599 251.841C222.64 248.545 218.995 246.841 214.665 246.73C213.643 246.685 213.001 246.151 212.74 245.126C212.544 244.302 212.087 244.024 211.369 244.291C210.455 244.648 209.769 244.391 209.312 243.523C207.191 239.48 204.123 240.55 201.185 239.447C191.241 235.75 181.2 232.376 171.06 229.325C150.53 223.178 130.62 215.06 109.895 209.08C102.975 207.075 95.958 203.133 88.4184 201.095C87.6351 200.895 86.8844 200.973 86.1664 201.329L85.1872 201.863C84.1645 202.376 83.1527 202.376 82.1518 201.863C66.137 193.467 49.1649 190.427 31.2353 192.743C29.1464 193.01 27.4492 194.547 25.0992 194.881C24.1201 194.993 23.3585 195.472 22.8145 196.318C19.1589 202.064 16.537 208.222 14.9486 214.792C14.8799 215.061 14.7346 215.303 14.5312 215.488C14.3278 215.672 14.0754 215.791 13.8062 215.828L12.5986 215.962C12.3199 215.998 12.0615 216.13 11.8659 216.337C11.6702 216.543 11.5488 216.811 11.5215 217.097C11.0319 222.175 8.97563 226.184 8.22494 231.463C7.83327 234.046 6.88676 236.418 5.38538 238.579C4.77612 239.447 4.49327 240.416 4.53679 241.485C4.66734 244.848 3.15508 247.053 0 248.1C17.1027 169.258 64.2984 104.146 127.356 56.3396C234.738 -25.1083 385.627 -15.988 487.264 69.1014C496.73 77.0301 509.143 90.2262 524.505 108.689C549.158 138.355 567.534 171.451 579.632 207.977C579.843 208.629 580.294 209.171 580.887 209.484C581.48 209.797 582.167 209.855 582.798 209.647C668.148 181.752 762.213 238.645 784.049 326.407C784.149 326.798 784.333 327.162 784.587 327.472C784.841 327.782 785.158 328.03 785.517 328.199C785.876 328.369 786.267 328.455 786.662 328.451C787.057 328.447 787.447 328.354 787.802 328.178C814.599 314.681 840.873 315.884 868.844 327.877C905.77 343.712 932.49 371.218 949.005 410.394C949.451 411.455 950.193 412.358 951.138 412.993C952.084 413.628 953.192 413.968 954.325 413.969C1066.02 414.459 1177.9 414.637 1289.98 414.503C1291.61 414.503 1292.26 415.572 1291.91 417.711Z" fill="#F1F1F1"/>
</svg>
