<svg width="1440" height="570" viewBox="0 0 1440 570" fill="none" xmlns="http://www.w3.org/2000/svg">
<path d="M1726.88 556.297C1723.47 565.343 1718.27 569.911 1711.29 570L1138.96 567.464L1009.55 560.746C1008.22 560.687 1007.03 560.242 1006 559.411C1003.09 557.068 999.882 555.629 996.359 555.095C996.093 555.066 995.944 554.917 995.915 554.651C995.885 554.087 995.781 553.597 995.604 553.182C995.278 552.47 994.745 552.218 994.005 552.426C991.252 553.138 989.12 552.411 987.61 550.246C986.836 549.125 985.669 548.319 984.324 547.977C978.224 546.464 972.007 546.108 965.671 546.909C964.19 547.107 962.693 546.724 961.496 545.841C951.104 538.322 939.335 541.125 930.586 539.523C901.408 534.14 879.203 528.4 855.354 521.504C845.895 518.79 835.946 518.256 827.109 514.919C790.869 501.305 757.25 487.735 718.346 482.975C686.222 479.089 656.63 471.244 629.569 459.439C598.392 445.854 572.027 434.835 550.473 426.381C537.179 421.131 521.857 416.682 504.507 413.034C488.816 409.742 473.183 406.227 457.609 402.489C417.995 392.968 381.533 375.973 344.228 360C336.812 356.841 330.416 358.576 322.733 355.239C322.2 355.002 321.816 354.691 321.579 354.305C321.283 353.86 321.12 353.371 321.09 352.837C321.061 351.977 320.646 351.398 319.847 351.102L305.324 345.184C304.643 344.917 303.962 344.71 303.281 344.561C301.89 344.324 300.72 343.672 299.773 342.604C298.796 341.447 297.582 340.646 296.131 340.201C289.736 338.273 283.43 336.123 277.212 333.75C277.094 333.72 277.02 333.75 276.99 333.839C276.842 334.254 276.738 334.699 276.679 335.174C276.62 335.767 276.383 335.841 275.969 335.396C271.942 331.006 266.983 328.737 261.091 328.589C259.699 328.53 258.826 327.818 258.471 326.453C258.204 325.356 257.582 324.985 256.605 325.341C255.362 325.816 254.429 325.475 253.807 324.318C250.921 318.934 246.746 320.358 242.749 318.89C229.219 313.966 215.555 309.472 201.758 305.409C173.823 297.222 146.733 286.411 118.532 278.447C109.117 275.778 99.5682 270.528 89.3093 267.814C88.2434 267.547 87.222 267.65 86.2449 268.125L84.9126 268.837C83.521 269.519 82.1443 269.519 80.7824 268.837C58.9914 257.655 35.8977 253.606 11.5013 256.691C8.65896 257.047 6.34964 259.093 3.15205 259.538C1.81972 259.686 0.783407 260.324 0.0432243 261.451C-4.9308 269.104 -8.49843 277.305 -10.6598 286.055C-10.7533 286.413 -10.951 286.736 -11.2277 286.981C-11.5045 287.227 -11.8478 287.385 -12.2142 287.434L-13.8574 287.612C-14.2366 287.661 -14.5881 287.837 -14.8543 288.112C-15.1206 288.387 -15.2858 288.744 -15.3229 289.125C-15.9891 295.888 -18.787 301.227 -19.8085 308.256C-20.3414 311.697 -21.6293 314.856 -23.6722 317.733C-24.5012 318.89 -24.8861 320.18 -24.8269 321.604C-24.6492 326.083 -26.7069 329.019 -31 330.413C-7.72865 225.413 56.4895 138.699 142.292 75.0317C288.404 -33.4386 493.716 -21.2924 632.011 92.0275C644.891 102.587 661.781 120.161 682.684 144.75C716.229 184.258 741.233 228.335 757.694 276.979C757.982 277.848 758.596 278.569 759.403 278.985C760.209 279.402 761.144 279.48 762.002 279.203C878.137 242.053 1006.13 317.822 1035.84 434.701C1035.98 435.222 1036.23 435.706 1036.57 436.119C1036.92 436.532 1037.35 436.863 1037.84 437.088C1038.33 437.314 1038.86 437.428 1039.4 437.423C1039.93 437.418 1040.46 437.294 1040.95 437.059C1077.41 419.085 1113.16 420.686 1151.22 436.659C1201.46 457.748 1237.82 494.379 1260.29 546.553C1260.9 547.965 1261.91 549.168 1263.2 550.014C1264.48 550.86 1265.99 551.312 1267.53 551.314C1419.51 551.966 1571.75 552.203 1724.25 552.025C1726.48 552.025 1727.35 553.449 1726.88 556.297Z" fill="#F1F1F1"/>
</svg>
