<svg width="468" height="196" viewBox="0 0 468 196" fill="none" xmlns="http://www.w3.org/2000/svg">
<path d="M459.259 175.339L466.591 187.463C468.925 191.269 467.648 193.172 462.76 193.172C233.607 192.995 45.8063 189.994 -222.254 194.938C-256.208 195.565 -297.537 195.349 -346.244 194.29C-352.893 194.172 -356.615 191.171 -357.407 185.286L-357.87 181.519C-358.706 175.124 -355.514 171.867 -348.291 171.749L-267.437 170.749L-164.124 171.926C-160.38 171.965 -158.245 170.317 -157.716 166.982C-145.033 81.9974 -73.9556 6.54684 26.5836 1.01459C105.588 -3.34058 170.721 31.7362 202.957 97.5346C203.27 98.1792 203.742 98.7529 204.337 99.2149C204.932 99.6768 205.637 100.015 206.401 100.207C207.165 100.398 207.968 100.437 208.755 100.321C209.541 100.205 210.291 99.9369 210.95 99.5358C285.594 54.3362 367.043 99.7123 390.89 168.1C391.448 169.704 392.619 171.083 394.2 171.997C395.781 172.911 397.672 173.302 399.543 173.103C420.153 170.827 440.058 171.573 459.259 175.339Z" fill="#F1F1F1"/>
</svg>
