<svg width="934" height="267" viewBox="0 0 934 267" fill="none" xmlns="http://www.w3.org/2000/svg">
<path d="M934 265.515C893.221 266.576 866.44 267.068 853.656 266.992C574.06 265.098 294.499 265.818 14.9027 266.31C14.3394 266.308 13.7921 266.108 13.3438 265.738C12.8954 265.369 12.5705 264.852 12.4182 264.264L8.8839 250.283C6.43437 234.521 2.51515 218.417 1.36037 203.375C-2.25559 156.189 1.33705 109.609 12.1383 63.636C15.521 62.4488 17.1423 59.948 17.0024 56.1337C16.9557 54.9212 17.259 53.8224 17.9122 52.8373C19.5218 50.3871 20.5366 47.6968 20.9566 44.7667C21.7614 38.78 23.966 34.2333 24.4909 28.474C24.5202 28.1494 24.6503 27.8451 24.8601 27.6111C25.0699 27.377 25.3469 27.227 25.6457 27.1857L26.9404 27.0341C27.2291 26.9918 27.4996 26.8576 27.7177 26.6484C27.9358 26.4393 28.0915 26.1647 28.1652 25.8595C29.8682 18.4078 32.6793 11.4234 36.5985 4.90629C37.1818 3.94641 37.9983 3.40329 39.0481 3.27698C41.5676 2.89808 43.3872 1.15514 45.6268 0.852018C64.8497 -1.77503 83.0462 1.67296 100.216 11.196C101.289 11.777 102.374 11.777 103.471 11.196L104.52 10.5898C105.29 10.1857 106.095 10.0972 106.935 10.3246C115.018 12.6359 122.542 17.1069 129.96 19.3803C152.181 26.1626 173.527 35.3699 195.538 42.3417C206.409 45.8023 217.175 49.6292 227.837 53.8224C230.986 55.0728 234.275 53.8603 236.55 58.445C237.04 59.4302 237.775 59.7207 238.754 59.3165C239.524 59.0134 240.014 59.3292 240.224 60.2638C240.504 61.4258 241.192 62.032 242.289 62.0825C246.931 62.2088 250.839 64.1412 254.012 67.8797C254.338 68.2586 254.525 68.1954 254.571 67.6902C254.618 67.2861 254.7 66.9072 254.816 66.5535C254.84 66.4777 254.898 66.4525 254.991 66.4778C259.89 68.4986 264.859 70.3299 269.898 71.9718C271.042 72.3507 271.998 73.0328 272.768 74.0179C273.514 74.9273 274.436 75.483 275.532 75.6851C276.069 75.8114 276.605 75.9882 277.142 76.2155L288.585 81.255C289.215 81.5076 289.541 82.0001 289.565 82.7326C289.588 83.1873 289.716 83.604 289.95 83.9829C290.136 84.3113 290.439 84.5766 290.859 84.7787C296.913 87.6205 301.952 86.1428 307.796 88.833C337.19 102.436 365.92 116.91 397.134 125.018C409.405 128.201 421.722 131.194 434.087 133.998C447.757 137.105 459.83 140.894 470.305 145.365C487.288 152.564 508.062 161.948 532.628 173.517C553.95 183.571 577.267 190.252 602.579 193.561C633.233 197.616 659.723 209.172 688.277 220.766C695.241 223.608 703.08 224.063 710.533 226.374C729.325 232.247 746.821 237.135 769.812 241.72C776.705 243.084 785.979 240.697 794.167 247.1C795.11 247.852 796.289 248.178 797.456 248.009C802.449 247.327 807.348 247.631 812.154 248.919C813.214 249.211 814.134 249.897 814.743 250.851C815.933 252.695 817.612 253.314 819.782 252.708C820.365 252.531 820.785 252.746 821.042 253.352C821.182 253.706 821.263 254.122 821.287 254.602C821.31 254.83 821.427 254.956 821.637 254.981C824.413 255.436 826.944 256.661 829.23 258.657C830.047 259.364 830.98 259.743 832.03 259.793L934 265.515Z" fill="#F1F1F1"/>
</svg>
