<svg width="1128" height="313" viewBox="0 0 1128 313" fill="none" xmlns="http://www.w3.org/2000/svg">
<path d="M1128 311.259C1076.26 312.502 1042.28 313.08 1026.06 312.991C671.33 310.77 316.641 311.614 -38.0923 312.192C-38.807 312.189 -39.5014 311.954 -40.0703 311.521C-40.6391 311.088 -41.0514 310.481 -41.2445 309.793L-45.7287 293.403C-48.8365 274.925 -53.8089 256.047 -55.274 238.413C-59.8618 183.098 -55.3036 128.493 -41.5997 74.5995C-37.308 73.2078 -35.2509 70.2761 -35.4285 65.8047C-35.4877 64.3833 -35.1029 63.0952 -34.2742 61.9404C-32.2319 59.068 -30.9444 55.9143 -30.4117 52.4793C-29.3905 45.4612 -26.5935 40.1311 -25.9275 33.3796C-25.8904 32.9991 -25.7252 32.6424 -25.459 32.368C-25.1929 32.0937 -24.8414 31.9178 -24.4624 31.8693L-22.8197 31.6917C-22.4535 31.6421 -22.1102 31.4847 -21.8335 31.2395C-21.5569 30.9944 -21.3592 30.6725 -21.2658 30.3147C-19.1051 21.5792 -15.5386 13.3915 -10.5661 5.75157C-9.82615 4.62631 -8.79016 3.98962 -7.45824 3.84156C-4.26164 3.39738 -1.95304 1.35415 0.888386 0.998808C25.2772 -2.08084 48.3638 1.96118 70.148 13.1249C71.5096 13.806 72.8858 13.806 74.2769 13.1249L75.6089 12.4143C76.5856 11.9405 77.6068 11.8368 78.6723 12.1033C88.928 14.8128 98.4734 20.0541 107.886 22.7192C136.078 30.6701 163.16 41.4636 191.086 49.6365C204.879 53.6934 218.538 58.1796 232.065 63.0952C236.06 64.561 240.234 63.1396 243.119 68.5142C243.741 69.6691 244.673 70.0097 245.917 69.5359C246.893 69.1805 247.515 69.5507 247.781 70.6463C248.136 72.0085 249.01 72.7191 250.401 72.7784C256.291 72.9264 261.248 75.1917 265.274 79.5743C265.688 80.0185 265.925 79.9445 265.984 79.3522C266.043 78.8784 266.147 78.4342 266.295 78.0197C266.324 77.9308 266.398 77.9013 266.517 77.9309C272.732 80.2998 279.037 82.4467 285.43 84.3715C286.88 84.8157 288.094 85.6152 289.071 86.7701C290.018 87.8361 291.187 88.4876 292.578 88.7245C293.259 88.8726 293.94 89.0798 294.62 89.3463L309.138 95.254C309.937 95.5501 310.352 96.1274 310.381 96.9862C310.411 97.5192 310.574 98.0077 310.87 98.4519C311.106 98.8369 311.491 99.1479 312.024 99.3848C319.705 102.716 326.098 100.984 333.512 104.138C370.806 120.084 407.256 137.051 446.858 146.557C462.427 150.288 478.055 153.797 493.742 157.084C511.086 160.726 526.403 165.168 539.693 170.409C561.24 178.849 587.597 189.849 618.764 203.412C645.817 215.197 675.4 223.03 707.514 226.909C746.406 231.662 780.015 245.209 816.243 258.801C825.078 262.132 835.023 262.665 844.48 265.375C868.321 272.26 890.519 277.99 919.688 283.364C928.435 284.963 940.2 282.165 950.589 289.672C951.785 290.554 953.281 290.936 954.762 290.738C961.096 289.938 967.312 290.294 973.409 291.804C974.754 292.146 975.921 292.95 976.694 294.069C978.204 296.231 980.335 296.956 983.088 296.246C983.828 296.038 984.36 296.29 984.686 297.001C984.863 297.415 984.967 297.904 984.997 298.466C985.026 298.733 985.174 298.881 985.441 298.911C988.963 299.444 992.174 300.88 995.075 303.219C996.111 304.048 997.295 304.492 998.627 304.552L1128 311.259Z" fill="#F1F1F1"/>
</svg>
