<svg width="938" height="415" viewBox="0 0 938 415" fill="none" xmlns="http://www.w3.org/2000/svg">
<path d="M1763.13 412.645C1686.15 414.293 1635.59 415.058 1611.46 414.94C1083.66 411.998 555.93 413.116 28.1321 413.881C27.0688 413.878 26.0356 413.566 25.1892 412.992C24.3428 412.419 23.7295 411.615 23.4421 410.703L16.7703 388.986C12.1463 364.503 4.74789 339.49 2.568 316.125C-4.25792 242.832 2.52398 170.482 22.9137 99.0726C29.2992 97.2285 32.3598 93.3441 32.0956 87.4195C32.0075 85.5361 32.58 83.8294 33.8131 82.2992C36.8517 78.4934 38.7673 74.3147 39.56 69.7634C41.0793 60.4645 45.241 53.4021 46.2319 44.4563C46.2871 43.9521 46.5328 43.4795 46.9289 43.116C47.3249 42.7525 47.8478 42.5195 48.4118 42.4552L50.8559 42.2199C51.4008 42.1541 51.9115 41.9456 52.3231 41.6208C52.7348 41.2959 53.0288 40.8694 53.1679 40.3954C56.3827 28.8209 61.6892 17.9722 69.0876 7.84932C70.1886 6.35836 71.73 5.51474 73.7117 5.31857C78.4678 4.73003 81.9027 2.02276 86.1304 1.55193C122.418 -2.52859 156.768 2.82707 189.18 17.619C191.206 18.5214 193.253 18.5214 195.323 17.619L197.305 16.6774C198.758 16.0496 200.277 15.9122 201.863 16.2654C217.122 19.8554 231.324 26.8002 245.328 30.3314C287.275 40.8662 327.57 55.1676 369.12 65.9967C389.642 71.372 409.965 77.3162 430.091 83.8294C436.036 85.7716 442.245 83.8882 446.539 91.0095C447.464 92.5397 448.851 92.991 450.701 92.3632C452.154 91.8924 453.079 92.3829 453.475 93.8346C454.003 95.6394 455.302 96.5811 457.372 96.6595C466.136 96.8557 473.512 99.8573 479.501 105.664C480.118 106.253 480.47 106.155 480.558 105.37C480.647 104.742 480.801 104.154 481.021 103.604C481.065 103.487 481.175 103.447 481.351 103.487C490.599 106.625 499.979 109.47 509.491 112.02C511.649 112.609 513.455 113.668 514.908 115.199C516.317 116.611 518.057 117.474 520.127 117.788C521.14 117.984 522.152 118.259 523.165 118.612L544.766 126.44C545.955 126.832 546.572 127.597 546.616 128.735C546.66 129.441 546.902 130.088 547.342 130.677C547.695 131.187 548.267 131.599 549.06 131.913C560.488 136.327 570 134.032 581.031 138.21C636.52 159.339 690.753 181.821 749.676 194.416C772.84 199.359 796.092 204.009 819.432 208.364C845.239 213.19 868.028 219.075 887.802 226.02C919.861 237.202 959.077 251.778 1005.45 269.748C1045.7 285.364 1089.72 295.742 1137.5 300.882C1195.36 307.179 1245.37 325.13 1299.27 343.139C1312.42 347.553 1327.21 348.259 1341.28 351.849C1376.76 360.972 1409.79 368.564 1453.19 375.685C1466.2 377.804 1483.7 374.096 1499.16 384.042C1500.94 385.211 1503.17 385.717 1505.37 385.455C1514.8 384.395 1524.04 384.866 1533.11 386.867C1535.12 387.32 1536.85 388.386 1538 389.869C1540.25 392.733 1543.42 393.694 1547.52 392.753C1548.62 392.478 1549.41 392.811 1549.89 393.753C1550.16 394.302 1550.31 394.95 1550.36 395.695C1550.4 396.048 1550.62 396.244 1551.02 396.284C1556.26 396.99 1561.04 398.893 1565.35 401.993C1566.89 403.091 1568.65 403.68 1570.64 403.758L1763.13 412.645Z" fill="#F1F1F1"/>
</svg>
