<svg width="1355" height="486" viewBox="0 0 1355 486" fill="none" xmlns="http://www.w3.org/2000/svg">
<path d="M1354.9 474.316C1352.28 482.03 1348.27 485.924 1342.89 486L901.763 483.838L802.016 478.11C800.989 478.059 800.076 477.68 799.277 476.972C797.041 474.974 794.565 473.747 791.849 473.292C791.644 473.267 791.53 473.14 791.507 472.913C791.484 472.432 791.404 472.015 791.268 471.661C791.016 471.054 790.606 470.839 790.035 471.016C787.913 471.623 786.27 471.003 785.106 469.157C784.51 468.202 783.61 467.514 782.573 467.222C777.872 465.933 773.08 465.629 768.196 466.312C767.055 466.481 765.901 466.155 764.979 465.401C756.969 458.99 747.898 461.38 741.154 460.015C718.665 455.424 701.55 450.531 683.168 444.651C675.877 442.337 668.21 441.882 661.398 439.037C633.466 427.429 607.554 415.858 577.568 411.799C552.808 408.486 529.999 401.797 509.141 391.732C485.112 380.149 464.79 370.754 448.177 363.546C437.931 359.07 426.122 355.276 412.749 352.166C400.654 349.359 388.605 346.362 376.602 343.175C346.068 335.057 317.965 320.566 289.212 306.947C283.495 304.254 278.566 305.733 272.644 302.888C272.234 302.686 271.937 302.42 271.754 302.092C271.526 301.712 271.401 301.295 271.378 300.84C271.355 300.106 271.035 299.613 270.419 299.36L259.226 294.315C258.701 294.087 258.176 293.91 257.651 293.784C256.579 293.582 255.678 293.025 254.947 292.115C254.194 291.129 253.259 290.446 252.14 290.066C247.211 288.423 242.35 286.589 237.558 284.566C237.467 284.541 237.41 284.566 237.387 284.642C237.273 284.996 237.193 285.375 237.147 285.78C237.102 286.286 236.919 286.349 236.6 285.969C233.496 282.227 229.674 280.292 225.133 280.165C224.06 280.115 223.387 279.508 223.113 278.344C222.908 277.409 222.428 277.093 221.675 277.396C220.717 277.801 219.998 277.51 219.519 276.524C217.294 271.933 214.076 273.147 210.996 271.896C200.567 267.697 190.035 263.866 179.401 260.401C157.87 253.421 136.99 244.203 115.253 237.413C107.997 235.137 100.637 230.66 92.7299 228.346C91.9083 228.119 91.121 228.207 90.368 228.612L89.341 229.219C88.2685 229.8 87.2074 229.8 86.1577 229.219C69.362 219.684 51.5622 216.232 32.7584 218.863C30.5676 219.166 28.7877 220.911 26.3231 221.29C25.2962 221.417 24.4974 221.961 23.9269 222.922C20.0932 229.446 17.3434 236.439 15.6775 243.9C15.6054 244.205 15.453 244.48 15.2397 244.689C15.0264 244.899 14.7618 245.033 14.4794 245.076L13.2129 245.227C12.9206 245.269 12.6497 245.419 12.4445 245.653C12.2393 245.888 12.1119 246.192 12.0833 246.517C11.5698 252.283 9.41329 256.835 8.626 262.829C8.21523 265.763 7.22257 268.456 5.64798 270.909C5.00901 271.896 4.71237 272.996 4.75801 274.21C4.89493 278.028 3.30893 280.532 0 281.721C17.9367 192.194 67.4336 118.259 133.567 63.9744C246.184 -28.5108 404.431 -18.1546 511.024 78.4656C520.951 87.4688 533.97 102.453 550.081 123.418C575.936 157.105 595.208 194.685 607.896 236.161C608.117 236.902 608.591 237.517 609.212 237.872C609.834 238.227 610.554 238.294 611.216 238.058C700.728 206.382 799.38 270.985 822.28 370.64C822.385 371.084 822.578 371.497 822.844 371.849C823.111 372.201 823.444 372.483 823.82 372.675C824.196 372.867 824.607 372.965 825.021 372.961C825.435 372.956 825.844 372.85 826.217 372.651C854.32 357.325 881.875 358.691 911.211 372.309C949.936 390.29 977.96 421.523 995.28 466.008C995.748 467.212 996.526 468.238 997.517 468.96C998.509 469.681 999.671 470.066 1000.86 470.067C1118 470.624 1235.34 470.826 1352.88 470.674C1354.6 470.674 1355.27 471.888 1354.9 474.316Z" fill="#F1F1F1"/>
</svg>
