<svg width="478" height="147" viewBox="0 0 478 147" fill="none" xmlns="http://www.w3.org/2000/svg">
<path d="M472.311 131.934L477.24 141.09C478.808 143.965 477.95 145.402 474.664 145.402C320.642 145.268 194.414 143.002 14.2401 146.735C-8.58137 147.21 -36.3607 147.046 -69.0981 146.246C-73.5676 146.157 -76.0688 143.891 -76.6016 139.446L-76.9124 136.601C-77.4748 131.771 -75.3288 129.311 -70.4745 129.222L-16.1293 128.466L53.3118 129.356C55.8277 129.385 57.2633 128.141 57.6185 125.622C66.1432 61.4364 113.917 4.45186 181.493 0.273588C234.595 -3.01569 278.374 23.4763 300.041 73.1711C300.251 73.6579 300.568 74.0912 300.968 74.4401C301.369 74.7889 301.842 75.0447 302.356 75.1891C302.869 75.3335 303.409 75.363 303.938 75.2754C304.466 75.1878 304.97 74.9854 305.413 74.6825C355.585 40.5451 410.329 74.8158 426.358 126.466C426.733 127.678 427.52 128.719 428.583 129.409C429.645 130.099 430.916 130.395 432.174 130.245C446.027 128.526 459.406 129.089 472.311 131.934Z" fill="#F1F1F1"/>
</svg>
