<svg width="1001" height="436" viewBox="0 0 1001 436" fill="none" xmlns="http://www.w3.org/2000/svg">
<g filter="url(#filter0_d_130_5943)">
<path d="M1307.91 417.711C1305.41 424.503 1301.59 427.933 1296.45 428L875.836 426.096L780.727 421.051C779.747 421.007 778.877 420.673 778.115 420.049C775.983 418.29 773.622 417.209 771.033 416.808C770.837 416.786 770.728 416.675 770.706 416.474C770.685 416.051 770.609 415.684 770.478 415.372C770.239 414.837 769.847 414.648 769.303 414.804C767.279 415.339 765.713 414.793 764.603 413.167C764.035 412.326 763.177 411.72 762.188 411.463C757.705 410.327 753.136 410.06 748.479 410.661C747.391 410.81 746.291 410.523 745.411 409.86C737.774 404.214 729.125 406.318 722.695 405.116C701.251 401.073 684.932 396.764 667.405 391.586C660.453 389.548 653.142 389.147 646.646 386.641C620.013 376.419 595.306 366.229 566.714 362.655C543.105 359.737 521.357 353.846 501.469 344.982C478.557 334.781 459.18 326.508 443.34 320.16C433.57 316.218 422.309 312.877 409.558 310.138C398.026 307.666 386.537 305.026 375.092 302.22C345.978 295.071 319.182 282.309 291.765 270.316C286.314 267.944 281.614 269.247 275.968 266.741C275.576 266.563 275.293 266.329 275.119 266.04C274.902 265.706 274.782 265.338 274.76 264.937C274.738 264.291 274.434 263.857 273.846 263.634L263.173 259.191C262.673 258.991 262.173 258.835 261.672 258.723C260.649 258.545 259.79 258.055 259.094 257.253C258.376 256.385 257.483 255.783 256.417 255.449C251.717 254.002 247.083 252.387 242.513 250.605C242.426 250.583 242.372 250.605 242.35 250.672C242.241 250.984 242.165 251.318 242.121 251.674C242.078 252.12 241.904 252.175 241.599 251.841C238.64 248.545 234.995 246.841 230.665 246.73C229.643 246.685 229.001 246.151 228.74 245.126C228.544 244.302 228.087 244.024 227.369 244.291C226.455 244.648 225.769 244.391 225.312 243.523C223.191 239.48 220.123 240.55 217.185 239.447C207.241 235.75 197.2 232.376 187.06 229.325C166.53 223.178 146.62 215.06 125.895 209.08C118.975 207.075 111.958 203.133 104.418 201.095C103.635 200.895 102.884 200.973 102.166 201.329L101.187 201.863C100.165 202.376 99.1527 202.376 98.1518 201.863C82.137 193.467 65.1649 190.427 47.2353 192.743C45.1464 193.01 43.4492 194.547 41.0992 194.881C40.1201 194.993 39.3585 195.472 38.8145 196.318C35.1589 202.064 32.537 208.222 30.9486 214.792C30.8799 215.061 30.7346 215.303 30.5312 215.488C30.3278 215.672 30.0754 215.791 29.8062 215.828L28.5986 215.962C28.3199 215.998 28.0615 216.13 27.8659 216.337C27.6702 216.543 27.5488 216.811 27.5215 217.097C27.0319 222.175 24.9756 226.184 24.2249 231.463C23.8333 234.046 22.8868 236.418 21.3854 238.579C20.7761 239.447 20.4933 240.416 20.5368 241.485C20.6673 244.848 19.1551 247.053 16 248.1C33.1027 169.258 80.2984 104.146 143.356 56.3396C250.738 -25.1083 401.627 -15.988 503.264 69.1014C512.73 77.0301 525.143 90.2262 540.505 108.689C565.158 138.355 583.534 171.451 595.632 207.977C595.843 208.629 596.294 209.171 596.887 209.484C597.48 209.797 598.167 209.855 598.798 209.647C684.148 181.752 778.213 238.645 800.049 326.407C800.149 326.798 800.333 327.162 800.587 327.472C800.841 327.782 801.158 328.03 801.517 328.199C801.876 328.369 802.267 328.455 802.662 328.451C803.057 328.447 803.447 328.354 803.802 328.178C830.599 314.681 856.873 315.884 884.844 327.877C921.77 343.712 948.49 371.218 965.005 410.394C965.451 411.455 966.193 412.358 967.138 412.993C968.084 413.628 969.192 413.968 970.325 413.969C1082.02 414.459 1193.9 414.637 1305.98 414.503C1307.61 414.503 1308.26 415.572 1307.91 417.711Z" fill="#F1F1F1"/>
<path d="M894.261 426.096C855.392 427.031 829.865 427.466 817.679 427.399C551.177 425.729 284.707 426.363 18.2049 426.798C17.6679 426.796 17.1462 426.619 16.7189 426.293C16.2915 425.968 15.9818 425.511 15.8367 424.994L12.4679 412.666C10.1331 398.769 6.39737 384.57 5.29667 371.307C1.85004 329.704 5.27444 288.635 15.5699 248.1C18.7941 247.053 20.3396 244.848 20.2061 241.485C20.1617 240.416 20.4507 239.447 21.0733 238.579C22.6076 236.418 23.5749 234.046 23.9752 231.463C24.7423 226.184 26.8437 222.176 27.344 217.098C27.3719 216.811 27.496 216.543 27.6959 216.337C27.8959 216.13 28.1599 215.998 28.4447 215.962L29.6788 215.828C29.954 215.791 30.2118 215.672 30.4197 215.488C30.6275 215.304 30.776 215.062 30.8462 214.792C32.4695 208.222 35.1489 202.064 38.8846 196.318C39.4405 195.472 40.2189 194.993 41.2195 194.882C43.621 194.547 45.3554 193.011 47.4901 192.743C65.8129 190.427 83.1572 193.467 99.5232 201.864C100.546 202.376 101.58 202.376 102.625 201.864L103.626 201.329C104.36 200.973 105.127 200.895 105.927 201.095C113.632 203.133 120.803 207.075 127.875 209.08C149.055 215.06 169.401 223.178 190.381 229.325C200.743 232.376 211.005 235.75 221.167 239.447C224.169 240.55 227.304 239.481 229.472 243.523C229.939 244.392 230.64 244.648 231.574 244.291C232.307 244.024 232.774 244.303 232.975 245.127C233.241 246.151 233.897 246.686 234.942 246.73C239.368 246.842 243.092 248.545 246.116 251.842C246.428 252.176 246.605 252.12 246.65 251.675C246.694 251.318 246.772 250.984 246.883 250.672C246.906 250.605 246.961 250.583 247.05 250.606C251.72 252.387 256.456 254.002 261.259 255.45C262.349 255.784 263.26 256.385 263.994 257.254C264.706 258.055 265.584 258.545 266.629 258.724C267.141 258.835 267.652 258.991 268.164 259.191L279.071 263.635C279.671 263.857 279.982 264.292 280.004 264.937C280.027 265.338 280.149 265.706 280.371 266.04C280.549 266.329 280.838 266.563 281.239 266.741C287.009 269.247 291.812 267.944 297.382 270.316C325.4 282.309 352.784 295.071 382.536 302.22C394.233 305.027 405.973 307.666 417.759 310.138C430.789 312.877 442.296 316.218 452.281 320.16C468.469 326.508 488.27 334.782 511.685 344.982C532.009 353.846 554.234 359.737 578.361 362.655C607.579 366.229 632.828 376.419 660.046 386.642C666.683 389.147 674.155 389.548 681.259 391.586C699.171 396.764 715.848 401.074 737.762 405.116C744.333 406.319 753.172 404.214 760.977 409.86C761.875 410.523 762.999 410.811 764.112 410.662C768.87 410.06 773.54 410.328 778.121 411.464C779.131 411.721 780.008 412.326 780.589 413.167C781.723 414.793 783.324 415.339 785.392 414.804C785.948 414.648 786.348 414.838 786.593 415.372C786.726 415.684 786.804 416.051 786.826 416.475C786.848 416.675 786.96 416.786 787.16 416.809C789.806 417.21 792.219 418.29 794.398 420.049C795.176 420.673 796.065 421.007 797.066 421.051L894.261 426.096Z" fill="#F1F1F1"/>
<path d="M131.727 120C131.477 119.235 131.148 118.549 130.739 117.943C130.337 117.33 129.856 116.807 129.295 116.375C128.742 115.943 128.114 115.614 127.409 115.386C126.705 115.159 125.932 115.045 125.091 115.045C123.712 115.045 122.458 115.402 121.33 116.114C120.201 116.826 119.303 117.875 118.636 119.261C117.97 120.648 117.636 122.348 117.636 124.364C117.636 126.379 117.973 128.08 118.648 129.466C119.322 130.852 120.235 131.902 121.386 132.614C122.538 133.326 123.833 133.682 125.273 133.682C126.606 133.682 127.78 133.398 128.795 132.83C129.818 132.254 130.614 131.443 131.182 130.398C131.758 129.345 132.045 128.106 132.045 126.682L132.909 126.864H125.909V124.364H134.773V126.864C134.773 128.78 134.364 130.447 133.545 131.864C132.735 133.28 131.614 134.379 130.182 135.159C128.758 135.932 127.121 136.318 125.273 136.318C123.212 136.318 121.402 135.833 119.841 134.864C118.288 133.894 117.076 132.515 116.205 130.727C115.341 128.939 114.909 126.818 114.909 124.364C114.909 122.523 115.155 120.867 115.648 119.398C116.148 117.92 116.852 116.663 117.761 115.625C118.67 114.587 119.746 113.792 120.989 113.239C122.231 112.686 123.598 112.409 125.091 112.409C126.318 112.409 127.462 112.595 128.523 112.966C129.591 113.33 130.542 113.848 131.375 114.523C132.216 115.189 132.917 115.989 133.477 116.92C134.038 117.845 134.424 118.871 134.636 120H131.727Z" fill="#01183E"/>
<path d="M144.372 136.409C143.266 136.409 142.262 136.201 141.361 135.784C140.459 135.36 139.743 134.75 139.213 133.955C138.683 133.152 138.418 132.182 138.418 131.045C138.418 130.045 138.615 129.235 139.009 128.614C139.402 127.985 139.929 127.492 140.588 127.136C141.247 126.78 141.974 126.515 142.77 126.341C143.573 126.159 144.38 126.015 145.19 125.909C146.251 125.773 147.111 125.67 147.77 125.602C148.437 125.527 148.921 125.402 149.224 125.227C149.535 125.053 149.69 124.75 149.69 124.318V124.227C149.69 123.106 149.384 122.235 148.77 121.614C148.164 120.992 147.243 120.682 146.009 120.682C144.728 120.682 143.724 120.962 142.997 121.523C142.27 122.083 141.759 122.682 141.463 123.318L138.918 122.409C139.372 121.348 139.978 120.523 140.736 119.932C141.501 119.333 142.334 118.917 143.236 118.682C144.145 118.439 145.039 118.318 145.918 118.318C146.478 118.318 147.122 118.386 147.849 118.523C148.584 118.652 149.293 118.92 149.974 119.33C150.664 119.739 151.236 120.356 151.69 121.182C152.145 122.008 152.372 123.114 152.372 124.5V136H149.69V133.636H149.554C149.372 134.015 149.069 134.42 148.645 134.852C148.221 135.284 147.656 135.652 146.952 135.955C146.247 136.258 145.387 136.409 144.372 136.409ZM144.781 134C145.842 134 146.736 133.792 147.463 133.375C148.198 132.958 148.751 132.42 149.122 131.761C149.501 131.102 149.69 130.409 149.69 129.682V127.227C149.577 127.364 149.327 127.489 148.94 127.602C148.562 127.708 148.122 127.803 147.622 127.886C147.13 127.962 146.649 128.03 146.179 128.091C145.717 128.144 145.342 128.189 145.054 128.227C144.357 128.318 143.705 128.466 143.099 128.67C142.501 128.867 142.016 129.167 141.645 129.568C141.281 129.962 141.099 130.5 141.099 131.182C141.099 132.114 141.444 132.818 142.134 133.295C142.831 133.765 143.713 134 144.781 134Z" fill="#01183E"/>
<path d="M169.631 122.455L167.222 123.136C167.07 122.735 166.847 122.345 166.551 121.966C166.263 121.58 165.869 121.261 165.369 121.011C164.869 120.761 164.229 120.636 163.449 120.636C162.381 120.636 161.491 120.883 160.778 121.375C160.074 121.86 159.722 122.477 159.722 123.227C159.722 123.894 159.964 124.42 160.449 124.807C160.934 125.193 161.691 125.515 162.722 125.773L165.312 126.409C166.873 126.788 168.036 127.367 168.801 128.148C169.566 128.92 169.949 129.917 169.949 131.136C169.949 132.136 169.661 133.03 169.085 133.818C168.517 134.606 167.722 135.227 166.699 135.682C165.676 136.136 164.487 136.364 163.131 136.364C161.35 136.364 159.877 135.977 158.71 135.205C157.544 134.432 156.805 133.303 156.494 131.818L159.04 131.182C159.282 132.121 159.741 132.826 160.415 133.295C161.097 133.765 161.987 134 163.085 134C164.335 134 165.328 133.735 166.062 133.205C166.805 132.667 167.176 132.023 167.176 131.273C167.176 130.667 166.964 130.159 166.54 129.75C166.116 129.333 165.464 129.023 164.585 128.818L161.676 128.136C160.078 127.758 158.903 127.17 158.153 126.375C157.411 125.572 157.04 124.568 157.04 123.364C157.04 122.379 157.316 121.508 157.869 120.75C158.43 119.992 159.191 119.398 160.153 118.966C161.123 118.534 162.222 118.318 163.449 118.318C165.176 118.318 166.532 118.697 167.517 119.455C168.509 120.212 169.214 121.212 169.631 122.455Z" fill="#01183E"/>
<path d="M190.304 136.364C188.622 136.364 187.171 135.992 185.952 135.25C184.74 134.5 183.804 133.455 183.145 132.114C182.493 130.765 182.168 129.197 182.168 127.409C182.168 125.621 182.493 124.045 183.145 122.682C183.804 121.311 184.721 120.242 185.895 119.477C187.077 118.705 188.455 118.318 190.031 118.318C190.94 118.318 191.838 118.47 192.724 118.773C193.611 119.076 194.418 119.568 195.145 120.25C195.872 120.924 196.452 121.818 196.884 122.932C197.315 124.045 197.531 125.417 197.531 127.045V128.182H184.077V125.864H194.804C194.804 124.879 194.607 124 194.213 123.227C193.827 122.455 193.274 121.845 192.554 121.398C191.842 120.951 191.001 120.727 190.031 120.727C188.963 120.727 188.039 120.992 187.259 121.523C186.486 122.045 185.891 122.727 185.474 123.568C185.058 124.409 184.849 125.311 184.849 126.273V127.818C184.849 129.136 185.077 130.254 185.531 131.17C185.993 132.08 186.634 132.773 187.452 133.25C188.27 133.72 189.221 133.955 190.304 133.955C191.009 133.955 191.645 133.856 192.213 133.659C192.789 133.455 193.285 133.152 193.702 132.75C194.118 132.341 194.44 131.833 194.668 131.227L197.259 131.955C196.986 132.833 196.527 133.606 195.884 134.273C195.24 134.932 194.444 135.447 193.497 135.818C192.55 136.182 191.486 136.364 190.304 136.364Z" fill="#01183E"/>
<path d="M209.384 118.545V120.818H199.974V118.545H209.384ZM202.793 136V116.136C202.793 115.136 203.027 114.303 203.497 113.636C203.967 112.97 204.577 112.47 205.327 112.136C206.077 111.803 206.868 111.636 207.702 111.636C208.361 111.636 208.899 111.689 209.315 111.795C209.732 111.902 210.043 112 210.247 112.091L209.474 114.409C209.338 114.364 209.149 114.307 208.906 114.239C208.671 114.17 208.361 114.136 207.974 114.136C207.088 114.136 206.448 114.36 206.054 114.807C205.668 115.254 205.474 115.909 205.474 116.773V136H202.793Z" fill="#01183E"/>
<path d="M220.915 118.545V120.818H211.506V118.545H220.915ZM214.324 136V116.136C214.324 115.136 214.559 114.303 215.028 113.636C215.498 112.97 216.108 112.47 216.858 112.136C217.608 111.803 218.4 111.636 219.233 111.636C219.892 111.636 220.43 111.689 220.847 111.795C221.263 111.902 221.574 112 221.778 112.091L221.006 114.409C220.869 114.364 220.68 114.307 220.438 114.239C220.203 114.17 219.892 114.136 219.506 114.136C218.619 114.136 217.979 114.36 217.585 114.807C217.199 115.254 217.006 115.909 217.006 116.773V136H214.324Z" fill="#01183E"/>
<path d="M231.273 136.364C229.591 136.364 228.14 135.992 226.92 135.25C225.708 134.5 224.773 133.455 224.114 132.114C223.462 130.765 223.136 129.197 223.136 127.409C223.136 125.621 223.462 124.045 224.114 122.682C224.773 121.311 225.689 120.242 226.864 119.477C228.045 118.705 229.424 118.318 231 118.318C231.909 118.318 232.807 118.47 233.693 118.773C234.58 119.076 235.386 119.568 236.114 120.25C236.841 120.924 237.42 121.818 237.852 122.932C238.284 124.045 238.5 125.417 238.5 127.045V128.182H225.045V125.864H235.773C235.773 124.879 235.576 124 235.182 123.227C234.795 122.455 234.242 121.845 233.523 121.398C232.811 120.951 231.97 120.727 231 120.727C229.932 120.727 229.008 120.992 228.227 121.523C227.455 122.045 226.86 122.727 226.443 123.568C226.027 124.409 225.818 125.311 225.818 126.273V127.818C225.818 129.136 226.045 130.254 226.5 131.17C226.962 132.08 227.602 132.773 228.42 133.25C229.239 133.72 230.189 133.955 231.273 133.955C231.977 133.955 232.614 133.856 233.182 133.659C233.758 133.455 234.254 133.152 234.67 132.75C235.087 132.341 235.409 131.833 235.636 131.227L238.227 131.955C237.955 132.833 237.496 133.606 236.852 134.273C236.208 134.932 235.413 135.447 234.466 135.818C233.519 136.182 232.455 136.364 231.273 136.364Z" fill="#01183E"/>
<path d="M249.67 136.364C248.034 136.364 246.625 135.977 245.443 135.205C244.261 134.432 243.352 133.367 242.716 132.011C242.08 130.655 241.761 129.106 241.761 127.364C241.761 125.591 242.087 124.027 242.739 122.67C243.398 121.307 244.314 120.242 245.489 119.477C246.67 118.705 248.049 118.318 249.625 118.318C250.852 118.318 251.958 118.545 252.943 119C253.928 119.455 254.735 120.091 255.364 120.909C255.992 121.727 256.383 122.682 256.534 123.773H253.852C253.648 122.977 253.193 122.273 252.489 121.659C251.792 121.038 250.852 120.727 249.67 120.727C248.625 120.727 247.708 121 246.92 121.545C246.14 122.083 245.53 122.845 245.091 123.83C244.659 124.807 244.443 125.955 244.443 127.273C244.443 128.621 244.655 129.795 245.08 130.795C245.511 131.795 246.117 132.572 246.898 133.125C247.686 133.678 248.61 133.955 249.67 133.955C250.367 133.955 251 133.833 251.568 133.591C252.136 133.348 252.617 133 253.011 132.545C253.405 132.091 253.686 131.545 253.852 130.909H256.534C256.383 131.939 256.008 132.867 255.409 133.693C254.818 134.511 254.034 135.163 253.057 135.648C252.087 136.125 250.958 136.364 249.67 136.364Z" fill="#01183E"/>
<path d="M268.045 118.545V120.818H259V118.545H268.045ZM261.636 114.364H264.318V131C264.318 131.758 264.428 132.326 264.648 132.705C264.875 133.076 265.163 133.326 265.511 133.455C265.867 133.576 266.242 133.636 266.636 133.636C266.932 133.636 267.174 133.621 267.364 133.591C267.553 133.553 267.705 133.523 267.818 133.5L268.364 135.909C268.182 135.977 267.928 136.045 267.602 136.114C267.277 136.189 266.864 136.227 266.364 136.227C265.606 136.227 264.864 136.064 264.136 135.739C263.417 135.413 262.818 134.917 262.341 134.25C261.871 133.583 261.636 132.742 261.636 131.727V114.364Z" fill="#01183E"/>
<path d="M284.131 122.455L281.722 123.136C281.57 122.735 281.347 122.345 281.051 121.966C280.763 121.58 280.369 121.261 279.869 121.011C279.369 120.761 278.729 120.636 277.949 120.636C276.881 120.636 275.991 120.883 275.278 121.375C274.574 121.86 274.222 122.477 274.222 123.227C274.222 123.894 274.464 124.42 274.949 124.807C275.434 125.193 276.191 125.515 277.222 125.773L279.812 126.409C281.373 126.788 282.536 127.367 283.301 128.148C284.066 128.92 284.449 129.917 284.449 131.136C284.449 132.136 284.161 133.03 283.585 133.818C283.017 134.606 282.222 135.227 281.199 135.682C280.176 136.136 278.987 136.364 277.631 136.364C275.85 136.364 274.377 135.977 273.21 135.205C272.044 134.432 271.305 133.303 270.994 131.818L273.54 131.182C273.782 132.121 274.241 132.826 274.915 133.295C275.597 133.765 276.487 134 277.585 134C278.835 134 279.828 133.735 280.562 133.205C281.305 132.667 281.676 132.023 281.676 131.273C281.676 130.667 281.464 130.159 281.04 129.75C280.616 129.333 279.964 129.023 279.085 128.818L276.176 128.136C274.578 127.758 273.403 127.17 272.653 126.375C271.911 125.572 271.54 124.568 271.54 123.364C271.54 122.379 271.816 121.508 272.369 120.75C272.93 119.992 273.691 119.398 274.653 118.966C275.623 118.534 276.722 118.318 277.949 118.318C279.676 118.318 281.032 118.697 282.017 119.455C283.009 120.212 283.714 121.212 284.131 122.455Z" fill="#01183E"/>
<path d="M290.44 136.182C289.88 136.182 289.399 135.981 288.997 135.58C288.596 135.178 288.395 134.697 288.395 134.136C288.395 133.576 288.596 133.095 288.997 132.693C289.399 132.292 289.88 132.091 290.44 132.091C291.001 132.091 291.482 132.292 291.884 132.693C292.285 133.095 292.486 133.576 292.486 134.136C292.486 134.508 292.391 134.848 292.202 135.159C292.02 135.47 291.774 135.72 291.463 135.909C291.16 136.091 290.819 136.182 290.44 136.182ZM290.44 123.227C289.88 123.227 289.399 123.027 288.997 122.625C288.596 122.223 288.395 121.742 288.395 121.182C288.395 120.621 288.596 120.14 288.997 119.739C289.399 119.337 289.88 119.136 290.44 119.136C291.001 119.136 291.482 119.337 291.884 119.739C292.285 120.14 292.486 120.621 292.486 121.182C292.486 121.553 292.391 121.894 292.202 122.205C292.02 122.515 291.774 122.765 291.463 122.955C291.16 123.136 290.819 123.227 290.44 123.227Z" fill="#01183E"/>
</g>
<defs>
<filter id="filter0_d_130_5943" x="0" y="0" width="1312" height="436" filterUnits="userSpaceOnUse" color-interpolation-filters="sRGB">
<feFlood flood-opacity="0" result="BackgroundImageFix"/>
<feColorMatrix in="SourceAlpha" type="matrix" values="0 0 0 0 0 0 0 0 0 0 0 0 0 0 0 0 0 0 127 0" result="hardAlpha"/>
<feOffset dy="4"/>
<feGaussianBlur stdDeviation="2"/>
<feComposite in2="hardAlpha" operator="out"/>
<feColorMatrix type="matrix" values="0 0 0 0 0 0 0 0 0 0 0 0 0 0 0 0 0 0 0.25 0"/>
<feBlend mode="normal" in2="BackgroundImageFix" result="effect1_dropShadow_130_5943"/>
<feBlend mode="normal" in="SourceGraphic" in2="effect1_dropShadow_130_5943" result="shape"/>
</filter>
</defs>
</svg>
