<svg width="736" height="236" viewBox="0 0 736 236" fill="none" xmlns="http://www.w3.org/2000/svg">
<path d="M890.261 234.096C851.392 235.031 825.865 235.466 813.679 235.399C547.177 233.729 280.707 234.363 14.2049 234.798C13.6679 234.796 13.1462 234.619 12.7189 234.293C12.2915 233.968 11.9818 233.511 11.8367 232.994L8.46787 220.666C6.13305 206.769 2.39737 192.57 1.29667 179.307C-2.14996 137.704 1.27444 96.6346 11.5699 56.0999C14.7941 55.0532 16.3396 52.8482 16.2061 49.4852C16.1617 48.4161 16.4507 47.4473 17.0733 46.5787C18.6076 44.4184 19.5749 42.0464 19.9752 39.4629C20.7423 34.1845 22.8437 30.1756 23.344 25.0976C23.3719 24.8114 23.496 24.5432 23.6959 24.3368C23.8959 24.1305 24.1599 23.9982 24.4447 23.9617L25.6788 23.8281C25.954 23.7908 26.2118 23.6725 26.4197 23.4881C26.6275 23.3037 26.776 23.0616 26.8462 22.7925C28.4695 16.2223 31.1489 10.0642 34.8846 4.31806C35.4405 3.47173 36.2189 2.99286 37.2195 2.8815C39.621 2.54742 41.3554 1.01067 43.4901 0.74341C61.8129 -1.57285 79.1572 1.46723 95.5232 9.86369C96.546 10.3759 97.58 10.3759 98.6251 9.86369L99.6258 9.32921C100.36 8.97286 101.127 8.89488 101.927 9.09533C109.632 11.1332 116.803 15.0753 123.875 17.0798C145.055 23.0597 165.401 31.1778 186.381 37.3248C196.743 40.376 207.005 43.7502 217.167 47.4473C220.169 48.5498 223.304 47.4807 225.472 51.5231C225.939 52.3917 226.64 52.6478 227.574 52.2915C228.307 52.0242 228.774 52.3026 228.975 53.1267C229.241 54.1512 229.897 54.6857 230.942 54.7302C235.368 54.8416 239.092 56.5454 242.116 59.8416C242.428 60.1757 242.605 60.12 242.65 59.6745C242.694 59.3182 242.772 58.9841 242.883 58.6723C242.906 58.6055 242.961 58.5832 243.05 58.6055C247.72 60.3873 252.456 62.002 257.259 63.4496C258.349 63.7837 259.26 64.3851 259.994 65.2537C260.706 66.0555 261.584 66.5454 262.629 66.7236C263.141 66.835 263.652 66.9908 264.164 67.1913L275.071 71.6345C275.671 71.8573 275.982 72.2915 276.004 72.9374C276.027 73.3383 276.149 73.7057 276.371 74.0398C276.549 74.3293 276.838 74.5633 277.239 74.7414C283.009 77.247 287.812 75.9441 293.382 78.3161C321.4 90.3094 348.784 103.071 378.536 110.22C390.233 113.027 401.973 115.666 413.759 118.138C426.789 120.877 438.296 124.218 448.281 128.16C464.469 134.508 484.27 142.782 507.685 152.982C528.009 161.846 550.234 167.737 574.361 170.655C603.579 174.229 628.828 184.419 656.046 194.642C662.683 197.147 670.155 197.548 677.259 199.586C695.171 204.764 711.848 209.074 733.762 213.116C740.333 214.319 749.172 212.214 756.977 217.86C757.875 218.523 758.999 218.811 760.112 218.662C764.87 218.06 769.54 218.328 774.121 219.464C775.131 219.721 776.008 220.326 776.589 221.167C777.723 222.793 779.324 223.339 781.392 222.804C781.948 222.648 782.348 222.838 782.593 223.372C782.726 223.684 782.804 224.051 782.826 224.475C782.849 224.675 782.96 224.786 783.16 224.809C785.806 225.21 788.219 226.29 790.398 228.049C791.176 228.673 792.065 229.007 793.066 229.051L890.261 234.096Z" fill="#F1F1F1"/>
</svg>
