<svg width="1133" height="313" viewBox="0 0 1133 313" fill="none" xmlns="http://www.w3.org/2000/svg">
<path d="M1133 311.259C1081.26 312.502 1047.28 313.08 1031.06 312.991C676.33 310.77 321.641 311.614 -33.0923 312.192C-33.807 312.189 -34.5014 311.954 -35.0703 311.521C-35.6391 311.088 -36.0514 310.481 -36.2445 309.793L-40.7287 293.403C-43.8365 274.925 -48.8089 256.047 -50.274 238.413C-54.8618 183.098 -50.3036 128.493 -36.5997 74.5995C-32.308 73.2078 -30.2509 70.2761 -30.4285 65.8047C-30.4877 64.3833 -30.1029 63.0952 -29.2742 61.9404C-27.2319 59.068 -25.9444 55.9143 -25.4117 52.4793C-24.3905 45.4612 -21.5935 40.1311 -20.9275 33.3796C-20.8904 32.9991 -20.7252 32.6424 -20.459 32.368C-20.1929 32.0937 -19.8414 31.9178 -19.4624 31.8693L-17.8197 31.6917C-17.4535 31.6421 -17.1102 31.4847 -16.8335 31.2395C-16.5569 30.9944 -16.3592 30.6725 -16.2658 30.3147C-14.1051 21.5792 -10.5386 13.3915 -5.5661 5.75157C-4.82615 4.62631 -3.79016 3.98962 -2.45824 3.84156C0.738358 3.39738 3.04696 1.35415 5.88839 0.998808C30.2772 -2.08084 53.3638 1.96118 75.148 13.1249C76.5096 13.806 77.8858 13.806 79.2769 13.1249L80.6089 12.4143C81.5856 11.9405 82.6068 11.8368 83.6723 12.1033C93.928 14.8128 103.473 20.0541 112.886 22.7192C141.078 30.6701 168.16 41.4636 196.086 49.6365C209.879 53.6934 223.538 58.1796 237.065 63.0952C241.06 64.561 245.234 63.1396 248.119 68.5142C248.741 69.6691 249.673 70.0097 250.917 69.5359C251.893 69.1805 252.515 69.5507 252.781 70.6463C253.136 72.0085 254.01 72.7191 255.401 72.7784C261.291 72.9264 266.248 75.1917 270.274 79.5743C270.688 80.0185 270.925 79.9445 270.984 79.3522C271.043 78.8784 271.147 78.4342 271.295 78.0197C271.324 77.9308 271.398 77.9013 271.517 77.9309C277.732 80.2998 284.037 82.4467 290.43 84.3715C291.88 84.8157 293.094 85.6152 294.071 86.7701C295.018 87.8361 296.187 88.4876 297.578 88.7245C298.259 88.8726 298.94 89.0798 299.62 89.3463L314.138 95.254C314.937 95.5501 315.352 96.1274 315.381 96.9862C315.411 97.5192 315.574 98.0077 315.87 98.4519C316.106 98.8369 316.491 99.1479 317.024 99.3848C324.705 102.716 331.098 100.984 338.512 104.138C375.806 120.084 412.256 137.051 451.858 146.557C467.427 150.288 483.055 153.797 498.742 157.084C516.086 160.726 531.403 165.168 544.693 170.409C566.24 178.849 592.597 189.849 623.764 203.412C650.817 215.197 680.4 223.03 712.514 226.909C751.406 231.662 785.015 245.209 821.243 258.801C830.078 262.132 840.023 262.665 849.48 265.375C873.321 272.26 895.519 277.99 924.688 283.364C933.435 284.963 945.2 282.165 955.589 289.672C956.785 290.554 958.281 290.936 959.762 290.738C966.096 289.938 972.312 290.294 978.409 291.804C979.754 292.146 980.921 292.95 981.694 294.069C983.204 296.231 985.335 296.956 988.088 296.246C988.828 296.038 989.36 296.29 989.686 297.001C989.863 297.415 989.967 297.904 989.997 298.466C990.026 298.733 990.174 298.881 990.441 298.911C993.963 299.444 997.174 300.88 1000.07 303.219C1001.11 304.048 1002.29 304.492 1003.63 304.552L1133 311.259Z" fill="#F1F1F1"/>
</svg>
