<svg width="684" height="754" viewBox="0 0 684 754" fill="none" xmlns="http://www.w3.org/2000/svg">
<path d="M2614.81 735.873C2609.75 747.84 2602.02 753.882 2591.63 754L1740.35 750.645L1547.86 741.758C1545.87 741.68 1544.11 741.091 1542.57 739.993C1538.26 736.893 1533.48 734.99 1528.24 734.284C1527.84 734.245 1527.62 734.049 1527.58 733.696C1527.53 732.95 1527.38 732.303 1527.11 731.753C1526.63 730.812 1525.84 730.478 1524.74 730.753C1520.64 731.695 1517.47 730.733 1515.22 727.869C1514.07 726.387 1512.34 725.321 1510.34 724.867C1501.26 722.867 1492.02 722.396 1482.59 723.455C1480.39 723.717 1478.16 723.211 1476.38 722.042C1460.93 712.096 1443.42 715.804 1430.41 713.685C1387.01 706.564 1353.98 698.972 1318.51 689.849C1304.44 686.259 1289.64 685.553 1276.49 681.139C1222.59 663.13 1172.59 645.18 1114.72 638.882C1066.94 633.742 1022.92 623.364 982.671 607.748C936.298 589.779 897.082 575.202 865.023 564.02C845.249 557.076 822.46 551.19 796.653 546.364C773.313 542.009 750.061 537.36 726.897 532.416C667.974 519.821 613.741 497.339 558.253 476.211C547.221 472.032 537.709 474.327 526.281 469.913C525.488 469.599 524.916 469.187 524.563 468.677C524.123 468.089 523.881 467.441 523.837 466.735C523.793 465.597 523.176 464.832 521.987 464.44L500.386 456.612C499.374 456.259 498.361 455.985 497.348 455.788C495.278 455.474 493.538 454.611 492.129 453.199C490.676 451.669 488.87 450.609 486.713 450.021C477.2 447.47 467.82 444.626 458.572 441.487C458.396 441.448 458.286 441.487 458.242 441.604C458.022 442.154 457.868 442.742 457.78 443.37C457.691 444.155 457.339 444.253 456.723 443.664C450.733 437.858 443.357 434.856 434.593 434.66C432.524 434.581 431.224 433.64 430.696 431.835C430.3 430.383 429.375 429.893 427.922 430.364C426.072 430.991 424.685 430.54 423.76 429.01C419.466 421.889 413.257 423.772 407.312 421.83C387.186 415.316 366.863 409.372 346.341 403.997C304.791 393.168 264.496 378.866 222.55 368.332C208.545 364.8 194.343 357.856 179.084 354.266C177.499 353.913 175.979 354.05 174.526 354.678L172.544 355.619C170.474 356.522 168.427 356.522 166.401 355.619C133.989 340.827 99.639 335.472 63.3515 339.552C59.1239 340.023 55.6889 342.73 50.9328 343.319C48.9511 343.515 47.4097 344.359 46.3087 345.85C38.9103 355.972 33.6038 366.821 30.389 378.396C30.25 378.87 29.9559 379.296 29.5442 379.621C29.1326 379.946 28.6219 380.154 28.077 380.22L25.6329 380.456C25.0689 380.52 24.546 380.753 24.15 381.116C23.754 381.48 23.5082 381.952 23.453 382.457C22.4621 391.402 18.3004 398.465 16.7811 407.764C15.9884 412.315 14.0728 416.494 11.0342 420.299C9.80111 421.83 9.22865 423.536 9.31672 425.42C9.58095 431.344 6.5203 435.229 0.134766 437.073C34.7488 298.178 130.268 183.472 257.89 99.2525C475.219 -44.2328 780.601 -28.1657 986.304 121.735C1005.46 135.703 1030.58 158.95 1061.68 191.476C1111.57 243.738 1148.76 302.043 1173.25 366.389C1173.67 367.539 1174.59 368.493 1175.79 369.044C1176.99 369.595 1178.38 369.699 1179.65 369.332C1352.39 320.189 1542.77 420.417 1586.96 575.026C1587.17 575.715 1587.54 576.355 1588.05 576.901C1588.56 577.447 1589.21 577.885 1589.93 578.183C1590.66 578.481 1591.45 578.633 1592.25 578.626C1593.05 578.62 1593.84 578.455 1594.56 578.145C1648.79 554.368 1701.97 556.487 1758.58 577.615C1833.31 605.512 1887.39 653.968 1920.82 722.984C1921.72 724.852 1923.22 726.444 1925.13 727.563C1927.05 728.682 1929.29 729.279 1931.58 729.282C2157.63 730.145 2384.08 730.458 2610.92 730.223C2614.22 730.223 2615.52 732.107 2614.81 735.873Z" fill="#F1F1F1"/>
</svg>
