<svg width="762" height="196" viewBox="0 0 762 196" fill="none" xmlns="http://www.w3.org/2000/svg">
<path d="M753.259 175.339L760.591 187.463C762.925 191.269 761.648 193.172 756.76 193.172C527.607 192.995 339.806 189.994 71.7459 194.938C37.7924 195.565 -3.53739 195.349 -52.2436 194.29C-58.8934 194.172 -62.6146 191.171 -63.4073 185.286L-63.8697 181.519C-64.7064 175.124 -61.5137 171.867 -54.2914 171.749L26.5627 170.749L129.876 171.926C133.62 171.965 135.755 170.317 136.284 166.982C148.967 81.9974 220.044 6.54684 320.584 1.01459C399.588 -3.34058 464.721 31.7362 496.957 97.5346C497.27 98.1792 497.742 98.7529 498.337 99.2149C498.932 99.6768 499.637 100.015 500.401 100.207C501.165 100.398 501.968 100.437 502.755 100.321C503.541 100.205 504.291 99.9369 504.95 99.5358C579.594 54.3362 661.043 99.7123 684.89 168.1C685.448 169.704 686.619 171.083 688.2 171.997C689.781 172.911 691.672 173.302 693.543 173.103C714.153 170.827 734.058 171.573 753.259 175.339Z" fill="#F1F1F1"/>
</svg>
