<svg width="648" height="172" viewBox="0 0 648 172" fill="none" xmlns="http://www.w3.org/2000/svg">
<path d="M647.276 170.082C619.037 170.758 600.491 171.072 591.638 171.024C398.02 169.816 204.426 170.275 10.8073 170.589C10.4173 170.588 10.0382 170.46 9.72776 170.225C9.41728 169.989 9.19228 169.659 9.08686 169.285L6.63934 160.372C4.94306 150.323 2.22903 140.057 1.42936 130.468C-1.07468 100.387 1.4132 70.6924 8.89299 41.3844C11.2355 40.6275 12.3582 39.0333 12.2613 36.6017C12.229 35.8287 12.439 35.1282 12.8914 34.5002C14.0061 32.9382 14.7088 31.2232 14.9996 29.3552C15.5569 25.5387 17.0836 22.6401 17.4471 18.9686C17.4674 18.7616 17.5575 18.5677 17.7028 18.4185C17.8481 18.2693 18.0399 18.1736 18.2468 18.1473L19.1434 18.0507C19.3433 18.0237 19.5306 17.9381 19.6816 17.8048C19.8326 17.6715 19.9405 17.4964 19.9915 17.3019C21.1708 12.5514 23.1175 8.09882 25.8315 3.94417C26.2354 3.33224 26.8009 2.986 27.5278 2.90549C29.2726 2.66394 30.5327 1.55281 32.0835 1.35957C45.3953 -0.315177 57.9963 1.88292 69.8864 7.95387C70.6295 8.32424 71.3807 8.32424 72.14 7.95387L72.867 7.56742C73.4001 7.30976 73.9574 7.25338 74.539 7.39831C80.1367 8.87177 85.3468 11.7221 90.4841 13.1714C105.872 17.4951 120.654 23.3647 135.896 27.8093C143.424 30.0154 150.88 32.4551 158.263 35.1282C160.444 35.9253 162.721 35.1524 164.296 38.0751C164.636 38.7032 165.145 38.8884 165.823 38.6307C166.356 38.4375 166.695 38.6388 166.841 39.2346C167.035 39.9753 167.511 40.3618 168.271 40.394C171.485 40.4745 174.191 41.7064 176.389 44.0897C176.615 44.3313 176.744 44.291 176.776 43.969C176.809 43.7113 176.865 43.4697 176.946 43.2443C176.962 43.196 177.002 43.1799 177.067 43.196C180.46 44.4843 183.901 45.6518 187.39 46.6985C188.182 46.94 188.844 47.3748 189.377 48.0029C189.894 48.5826 190.532 48.9369 191.292 49.0657C191.663 49.1462 192.035 49.2589 192.406 49.4038L200.33 52.6165C200.767 52.7775 200.993 53.0915 201.009 53.5585C201.025 53.8483 201.114 54.114 201.275 54.3556C201.405 54.5649 201.615 54.734 201.905 54.8629C206.098 56.6745 209.587 55.7325 213.634 57.4475C233.989 66.1191 253.884 75.3463 275.5 80.5154C283.997 82.5445 292.527 84.4527 301.089 86.2402C310.556 88.2209 318.916 90.6364 326.17 93.4867C337.931 98.0761 352.317 104.058 369.328 111.434C384.094 117.843 400.241 122.102 417.769 124.212C438.997 126.796 457.341 134.164 477.115 141.555C481.937 143.367 487.365 143.657 492.527 145.13C505.54 148.874 517.656 151.99 533.577 154.913C538.35 155.782 544.772 154.261 550.443 158.343C551.095 158.822 551.912 159.03 552.72 158.923C556.178 158.488 559.57 158.681 562.898 159.502C563.632 159.688 564.269 160.126 564.691 160.734C565.515 161.91 566.678 162.304 568.181 161.918C568.585 161.805 568.875 161.942 569.053 162.328C569.15 162.554 569.207 162.82 569.223 163.126C569.239 163.27 569.32 163.351 569.465 163.367C571.388 163.657 573.14 164.438 574.724 165.71C575.289 166.161 575.935 166.403 576.662 166.435L647.276 170.082Z" fill="#F1F1F1"/>
</svg>
