<svg width="1109" height="313" viewBox="0 0 1109 313" fill="none" xmlns="http://www.w3.org/2000/svg">
<path d="M1109 311.259C1057.26 312.502 1023.28 313.08 1007.06 312.991C652.33 310.77 297.641 311.614 -57.0923 312.192C-57.807 312.189 -58.5014 311.954 -59.0703 311.521C-59.6391 311.088 -60.0514 310.481 -60.2445 309.793L-64.7287 293.403C-67.8365 274.925 -72.8089 256.047 -74.274 238.413C-78.8618 183.098 -74.3036 128.493 -60.5997 74.5995C-56.308 73.2078 -54.2509 70.2761 -54.4285 65.8047C-54.4877 64.3833 -54.1029 63.0952 -53.2742 61.9404C-51.2319 59.068 -49.9444 55.9143 -49.4117 52.4793C-48.3905 45.4612 -45.5935 40.1311 -44.9275 33.3796C-44.8904 32.9991 -44.7252 32.6424 -44.459 32.368C-44.1929 32.0937 -43.8414 31.9178 -43.4624 31.8693L-41.8197 31.6917C-41.4535 31.6421 -41.1102 31.4847 -40.8335 31.2395C-40.5569 30.9944 -40.3592 30.6725 -40.2658 30.3147C-38.1051 21.5792 -34.5386 13.3915 -29.5661 5.75157C-28.8261 4.62631 -27.7902 3.98962 -26.4582 3.84156C-23.2616 3.39738 -20.953 1.35415 -18.1116 0.998808C6.27724 -2.08084 29.3638 1.96118 51.148 13.1249C52.5096 13.806 53.8858 13.806 55.2769 13.1249L56.6089 12.4143C57.5856 11.9405 58.6068 11.8368 59.6723 12.1033C69.928 14.8128 79.4734 20.0541 88.8857 22.7192C117.078 30.6701 144.16 41.4636 172.086 49.6365C185.879 53.6934 199.538 58.1796 213.065 63.0952C217.06 64.561 221.234 63.1396 224.119 68.5142C224.741 69.6691 225.673 70.0097 226.917 69.5359C227.893 69.1805 228.515 69.5507 228.781 70.6463C229.136 72.0085 230.01 72.7191 231.401 72.7784C237.291 72.9264 242.248 75.1917 246.274 79.5743C246.688 80.0185 246.925 79.9445 246.984 79.3522C247.043 78.8784 247.147 78.4342 247.295 78.0197C247.324 77.9308 247.398 77.9013 247.517 77.9309C253.732 80.2998 260.037 82.4467 266.43 84.3715C267.88 84.8157 269.094 85.6152 270.071 86.7701C271.018 87.8361 272.187 88.4876 273.578 88.7245C274.259 88.8726 274.94 89.0798 275.62 89.3463L290.138 95.254C290.937 95.5501 291.352 96.1274 291.381 96.9862C291.411 97.5192 291.574 98.0077 291.87 98.4519C292.106 98.8369 292.491 99.1479 293.024 99.3848C300.705 102.716 307.098 100.984 314.512 104.138C351.806 120.084 388.256 137.051 427.858 146.557C443.427 150.288 459.055 153.797 474.742 157.084C492.086 160.726 507.403 165.168 520.693 170.409C542.24 178.849 568.597 189.849 599.764 203.412C626.817 215.197 656.4 223.03 688.514 226.909C727.406 231.662 761.015 245.209 797.243 258.801C806.078 262.132 816.023 262.665 825.48 265.375C849.321 272.26 871.519 277.99 900.688 283.364C909.435 284.963 921.2 282.165 931.589 289.672C932.785 290.554 934.281 290.936 935.762 290.738C942.096 289.938 948.312 290.294 954.409 291.804C955.754 292.146 956.921 292.95 957.694 294.069C959.204 296.231 961.335 296.956 964.088 296.246C964.828 296.038 965.36 296.29 965.686 297.001C965.863 297.415 965.967 297.904 965.997 298.466C966.026 298.733 966.174 298.881 966.441 298.911C969.963 299.444 973.174 300.88 976.075 303.219C977.111 304.048 978.295 304.492 979.627 304.552L1109 311.259Z" fill="#F1F1F1"/>
</svg>
