<svg width="1440" height="570" viewBox="0 0 1440 570" fill="none" xmlns="http://www.w3.org/2000/svg">
<path d="M1696.88 556.297C1693.47 565.343 1688.27 569.911 1681.29 570L1108.96 567.464L979.549 560.746C978.217 560.687 977.032 560.242 975.996 559.411C973.094 557.068 969.882 555.629 966.359 555.095C966.093 555.066 965.944 554.917 965.915 554.651C965.885 554.087 965.781 553.597 965.604 553.182C965.278 552.47 964.745 552.218 964.005 552.426C961.252 553.138 959.12 552.411 957.61 550.246C956.836 549.125 955.669 548.319 954.324 547.977C948.224 546.464 942.007 546.108 935.671 546.909C934.19 547.107 932.693 546.724 931.496 545.841C921.104 538.322 909.335 541.125 900.586 539.523C871.408 534.14 849.203 528.4 825.354 521.504C815.895 518.79 805.946 518.256 797.109 514.919C760.869 501.305 727.25 487.735 688.346 482.975C656.222 479.089 626.63 471.244 599.569 459.439C568.392 445.854 542.027 434.835 520.473 426.381C507.179 421.131 491.857 416.682 474.507 413.034C458.816 409.742 443.183 406.227 427.609 402.489C387.995 392.968 351.533 375.973 314.228 360C306.812 356.841 300.416 358.576 292.733 355.239C292.2 355.002 291.816 354.691 291.579 354.305C291.283 353.86 291.12 353.371 291.09 352.837C291.061 351.977 290.646 351.398 289.847 351.102L275.324 345.184C274.643 344.917 273.962 344.71 273.281 344.561C271.89 344.324 270.72 343.672 269.773 342.604C268.796 341.447 267.582 340.646 266.131 340.201C259.736 338.273 253.43 336.123 247.212 333.75C247.094 333.72 247.02 333.75 246.99 333.839C246.842 334.254 246.738 334.699 246.679 335.174C246.62 335.767 246.383 335.841 245.969 335.396C241.942 331.006 236.983 328.737 231.091 328.589C229.699 328.53 228.826 327.818 228.471 326.453C228.204 325.356 227.582 324.985 226.605 325.341C225.362 325.816 224.429 325.475 223.807 324.318C220.921 318.934 216.746 320.358 212.749 318.89C199.219 313.966 185.555 309.472 171.758 305.409C143.823 297.222 116.733 286.411 88.5317 278.447C79.1166 275.778 69.5682 270.528 59.3093 267.814C58.2434 267.547 57.222 267.65 56.2449 268.125L54.9126 268.837C53.521 269.519 52.1443 269.519 50.7824 268.837C28.9914 257.655 5.89769 253.606 -18.4987 256.691C-21.341 257.047 -23.6504 259.093 -26.848 259.538C-28.1803 259.686 -29.2166 260.324 -29.9568 261.451C-34.9308 269.104 -38.4984 277.305 -40.6598 286.055C-40.7533 286.413 -40.951 286.736 -41.2277 286.981C-41.5045 287.227 -41.8478 287.385 -42.2142 287.434L-43.8574 287.612C-44.2366 287.661 -44.5881 287.837 -44.8543 288.112C-45.1206 288.387 -45.2858 288.744 -45.3229 289.125C-45.9891 295.888 -48.787 301.227 -49.8085 308.256C-50.3414 311.697 -51.6293 314.856 -53.6722 317.733C-54.5012 318.89 -54.8861 320.18 -54.8269 321.604C-54.6492 326.083 -56.7069 329.019 -61 330.413C-37.7287 225.413 26.4895 138.699 112.292 75.0317C258.404 -33.4386 463.716 -21.2924 602.011 92.0275C614.891 102.587 631.781 120.161 652.684 144.75C686.229 184.258 711.233 228.335 727.694 276.979C727.982 277.848 728.596 278.569 729.403 278.985C730.209 279.402 731.144 279.48 732.002 279.203C848.137 242.053 976.129 317.822 1005.84 434.701C1005.98 435.222 1006.23 435.706 1006.57 436.119C1006.92 436.532 1007.35 436.863 1007.84 437.088C1008.33 437.314 1008.86 437.428 1009.4 437.423C1009.93 437.418 1010.46 437.294 1010.95 437.059C1047.41 419.085 1083.16 420.686 1121.22 436.659C1171.46 457.748 1207.82 494.379 1230.29 546.553C1230.9 547.965 1231.91 549.168 1233.2 550.014C1234.48 550.86 1235.99 551.312 1237.53 551.314C1389.51 551.966 1541.75 552.203 1694.25 552.025C1696.48 552.025 1697.35 553.449 1696.88 556.297Z" fill="#F1F1F1"/>
</svg>
