<svg width="751" height="196" viewBox="0 0 751 196" fill="none" xmlns="http://www.w3.org/2000/svg">
<path d="M742.259 175.339L749.591 187.463C751.925 191.269 750.648 193.172 745.76 193.172C516.607 192.995 328.806 189.994 60.7459 194.938C26.7924 195.565 -14.5374 195.35 -63.2436 194.29C-69.8934 194.172 -73.6146 191.171 -74.4073 185.286L-74.8697 181.519C-75.7064 175.124 -72.5137 171.867 -65.2914 171.749L15.5627 170.749L118.876 171.926C122.62 171.965 124.755 170.317 125.284 166.982C137.967 81.9974 209.044 6.54684 309.584 1.01459C388.588 -3.34058 453.721 31.7362 485.957 97.5346C486.27 98.1792 486.742 98.7529 487.337 99.2149C487.932 99.6768 488.637 100.015 489.401 100.207C490.165 100.398 490.968 100.437 491.755 100.321C492.541 100.205 493.291 99.9369 493.95 99.5358C568.594 54.3362 650.043 99.7123 673.89 168.1C674.448 169.704 675.619 171.083 677.2 171.997C678.781 172.911 680.672 173.302 682.543 173.103C703.153 170.827 723.058 171.573 742.259 175.339Z" fill="#F1F1F1"/>
</svg>
