<svg width="1440" height="570" viewBox="0 0 1440 570" fill="none" xmlns="http://www.w3.org/2000/svg">
<path d="M1624.88 556.297C1621.47 565.343 1616.27 569.911 1609.29 570L1036.96 567.464L907.549 560.746C906.217 560.687 905.032 560.242 903.996 559.411C901.094 557.068 897.882 555.629 894.359 555.095C894.093 555.066 893.944 554.917 893.915 554.651C893.885 554.087 893.781 553.597 893.604 553.182C893.278 552.47 892.745 552.218 892.005 552.426C889.252 553.138 887.12 552.411 885.61 550.246C884.836 549.125 883.669 548.319 882.324 547.977C876.224 546.464 870.007 546.108 863.671 546.909C862.19 547.107 860.693 546.724 859.496 545.841C849.104 538.322 837.335 541.125 828.586 539.523C799.408 534.14 777.203 528.4 753.354 521.504C743.895 518.79 733.946 518.256 725.109 514.919C688.869 501.305 655.25 487.735 616.346 482.975C584.222 479.089 554.63 471.244 527.569 459.439C496.392 445.854 470.027 434.835 448.473 426.381C435.179 421.131 419.857 416.682 402.507 413.034C386.816 409.742 371.183 406.227 355.609 402.489C315.995 392.968 279.533 375.973 242.228 360C234.812 356.841 228.416 358.576 220.733 355.239C220.2 355.002 219.816 354.691 219.579 354.305C219.283 353.86 219.12 353.371 219.09 352.837C219.061 351.977 218.646 351.398 217.847 351.102L203.324 345.184C202.643 344.917 201.962 344.71 201.281 344.561C199.89 344.324 198.72 343.672 197.773 342.604C196.796 341.447 195.582 340.646 194.131 340.201C187.736 338.273 181.43 336.123 175.212 333.75C175.094 333.72 175.02 333.75 174.99 333.839C174.842 334.254 174.738 334.699 174.679 335.174C174.62 335.767 174.383 335.841 173.969 335.396C169.942 331.006 164.983 328.737 159.091 328.589C157.699 328.53 156.826 327.818 156.471 326.453C156.204 325.356 155.582 324.985 154.605 325.341C153.362 325.816 152.429 325.475 151.807 324.318C148.921 318.934 144.746 320.358 140.749 318.89C127.219 313.966 113.555 309.472 99.7578 305.409C71.8233 297.222 44.7327 286.411 16.5317 278.447C7.11661 275.778 -2.43176 270.528 -12.6907 267.814C-13.7566 267.547 -14.778 267.65 -15.7551 268.125L-17.0874 268.837C-18.479 269.519 -19.8557 269.519 -21.2176 268.837C-43.0086 257.655 -66.1023 253.606 -90.4987 256.691C-93.341 257.047 -95.6504 259.093 -98.848 259.538C-100.18 259.686 -101.217 260.324 -101.957 261.451C-106.931 269.104 -110.498 277.305 -112.66 286.055C-112.753 286.413 -112.951 286.736 -113.228 286.981C-113.504 287.227 -113.848 287.385 -114.214 287.434L-115.857 287.612C-116.237 287.661 -116.588 287.837 -116.854 288.112C-117.121 288.387 -117.286 288.744 -117.323 289.125C-117.989 295.888 -120.787 301.227 -121.808 308.256C-122.341 311.697 -123.629 314.856 -125.672 317.733C-126.501 318.89 -126.886 320.18 -126.827 321.604C-126.649 326.083 -128.707 329.019 -133 330.413C-109.729 225.413 -45.5105 138.699 40.2915 75.0317C186.404 -33.4386 391.716 -21.2924 530.011 92.0275C542.891 102.587 559.781 120.161 580.684 144.75C614.229 184.258 639.233 228.335 655.694 276.979C655.982 277.848 656.596 278.569 657.403 278.985C658.209 279.402 659.144 279.48 660.002 279.203C776.137 242.053 904.129 317.822 933.84 434.701C933.977 435.222 934.227 435.706 934.572 436.119C934.918 436.532 935.35 436.863 935.838 437.088C936.327 437.314 936.859 437.428 937.396 437.423C937.934 437.418 938.464 437.294 938.948 437.059C975.409 419.085 1011.16 420.686 1049.22 436.659C1099.46 457.748 1135.82 494.379 1158.29 546.553C1158.9 547.965 1159.91 549.168 1161.2 550.014C1162.48 550.86 1163.99 551.312 1165.53 551.314C1317.51 551.966 1469.75 552.203 1622.25 552.025C1624.48 552.025 1625.35 553.449 1624.88 556.297Z" fill="#F1F1F1"/>
</svg>
