<svg width="303" height="81" viewBox="0 0 303 81" fill="none" xmlns="http://www.w3.org/2000/svg">
<path d="M299.805 71.9789L302.495 76.9549C303.351 78.5169 302.882 79.2979 301.089 79.2979C217.026 79.2254 148.133 77.9935 49.7973 80.0226C37.3417 80.2802 22.1802 80.1916 4.31273 79.7568C1.87332 79.7085 0.508221 78.4766 0.217431 76.0611L0.0478033 74.5152C-0.259143 71.8904 0.912091 70.5538 3.56152 70.5055L33.2222 70.0948L71.1219 70.578C72.4951 70.5941 73.2786 69.9177 73.4725 68.549C78.1251 33.6692 104.199 2.70245 141.081 0.431877C170.064 -1.35559 193.957 13.0408 205.782 40.046C205.897 40.3106 206.07 40.5461 206.289 40.7356C206.507 40.9252 206.766 41.0642 207.046 41.1427C207.326 41.2212 207.621 41.2372 207.909 41.1896C208.198 41.142 208.473 41.032 208.715 40.8674C236.097 22.3163 265.976 40.9398 274.724 69.0079C274.929 69.6661 275.359 70.232 275.939 70.6071C276.518 70.9822 277.212 71.1429 277.898 71.0611C285.459 70.1271 292.761 70.433 299.805 71.9789Z" fill="#F1F1F1"/>
</svg>
