<svg width="678" height="310" viewBox="0 0 678 310" fill="none" xmlns="http://www.w3.org/2000/svg">
<path d="M960.069 302.02C958.212 306.932 955.376 309.411 951.564 309.46L639.279 308.083L568.665 304.436C567.938 304.403 567.292 304.162 566.726 303.711C565.143 302.439 563.39 301.658 561.468 301.368C561.322 301.352 561.242 301.271 561.225 301.126C561.209 300.82 561.153 300.555 561.056 300.329C560.878 299.943 560.587 299.806 560.183 299.919C558.681 300.305 557.518 299.911 556.694 298.735C556.272 298.127 555.635 297.689 554.901 297.503C551.573 296.682 548.18 296.489 544.723 296.923C543.915 297.031 543.098 296.823 542.445 296.344C536.775 292.261 530.353 293.783 525.579 292.914C509.658 289.991 497.542 286.875 484.529 283.131C479.368 281.657 473.94 281.368 469.117 279.556C449.344 272.164 430.999 264.797 409.772 262.213C392.244 260.103 376.097 255.844 361.331 249.435C344.32 242.059 329.934 236.077 318.173 231.488C310.919 228.637 302.559 226.222 293.092 224.241C284.53 222.454 276 220.545 267.502 218.516C245.887 213.347 225.992 204.12 205.637 195.448C201.59 193.733 198.1 194.675 193.908 192.864C193.617 192.735 193.407 192.566 193.278 192.356C193.116 192.115 193.028 191.849 193.011 191.559C192.995 191.092 192.769 190.778 192.333 190.617L184.409 187.405C184.037 187.26 183.666 187.147 183.294 187.067C182.535 186.938 181.897 186.583 181.38 186.004C180.847 185.376 180.184 184.941 179.393 184.699C175.903 183.653 172.462 182.485 169.07 181.197C169.005 181.181 168.965 181.197 168.948 181.245C168.868 181.471 168.811 181.712 168.779 181.97C168.746 182.292 168.617 182.332 168.391 182.091C166.194 179.707 163.488 178.475 160.273 178.395C159.514 178.363 159.037 177.976 158.843 177.235C158.698 176.64 158.359 176.438 157.826 176.632C157.147 176.889 156.638 176.704 156.299 176.076C154.724 173.153 152.446 173.926 150.265 173.129C142.882 170.456 135.427 168.016 127.898 165.81C112.656 161.366 97.8743 155.496 82.4866 151.172C77.3493 149.723 72.1393 146.873 66.5415 145.399C65.96 145.254 65.4026 145.311 64.8695 145.568L64.1425 145.955C63.3832 146.325 62.632 146.325 61.8889 145.955C49.9988 139.884 37.3978 137.686 24.0861 139.36C22.5352 139.554 21.2751 140.665 19.5304 140.906C18.8034 140.987 18.2379 141.333 17.8341 141.945C15.12 146.1 13.1734 150.552 11.994 155.303C11.943 155.497 11.8351 155.672 11.6841 155.806C11.5331 155.939 11.3458 156.025 11.1459 156.052L10.2493 156.148C10.0424 156.174 9.85057 156.27 9.70529 156.419C9.56002 156.569 9.46988 156.762 9.4496 156.969C9.08612 160.641 7.55944 163.54 7.00209 167.356C6.7113 169.224 6.00857 170.939 4.89387 172.501C4.44153 173.129 4.23152 173.83 4.26383 174.603C4.36076 177.034 3.23799 178.628 0.895508 179.385C13.5934 122.379 48.6337 75.3014 95.451 40.7356C175.176 -18.1542 287.203 -11.5599 362.664 49.9629C369.691 55.6956 378.908 65.2368 390.313 78.5865C408.617 100.036 422.26 123.966 431.242 150.375C431.399 150.847 431.734 151.238 432.174 151.465C432.614 151.691 433.124 151.733 433.592 151.583C496.961 131.413 566.799 172.549 583.01 236.004C583.085 236.287 583.221 236.55 583.41 236.774C583.598 236.998 583.834 237.178 584.101 237.3C584.367 237.423 584.657 237.485 584.951 237.482C585.244 237.479 585.533 237.412 585.797 237.285C605.692 227.526 625.199 228.396 645.967 237.067C673.382 248.517 693.22 268.404 705.482 296.73C705.813 297.497 706.364 298.15 707.066 298.609C707.768 299.069 708.59 299.314 709.432 299.315C792.356 299.669 875.425 299.798 958.64 299.701C959.851 299.701 960.328 300.474 960.069 302.02Z" fill="#F1F1F1"/>
</svg>
