<svg width="781" height="415" viewBox="0 0 781 415" fill="none" xmlns="http://www.w3.org/2000/svg">
<path d="M1763.34 412.645C1686.36 414.293 1635.81 415.058 1611.67 414.94C1083.88 411.998 556.145 413.116 28.347 413.881C27.2836 413.878 26.2504 413.566 25.4041 412.992C24.5577 412.419 23.9444 411.615 23.657 410.703L16.9851 388.986C12.3611 364.503 4.96274 339.49 2.78285 316.125C-4.04307 242.832 2.73882 170.482 23.1285 99.0726C29.514 97.2285 32.5747 93.3441 32.3105 87.4195C32.2224 85.5361 32.7948 83.8294 34.0279 82.2992C37.0665 78.4934 38.9822 74.3147 39.7749 69.7634C41.2942 60.4645 45.4558 53.4021 46.4467 44.4563C46.502 43.9521 46.7477 43.4795 47.1437 43.116C47.5397 42.7525 48.0626 42.5195 48.6266 42.4552L51.0707 42.2199C51.6156 42.1541 52.1263 41.9456 52.538 41.6208C52.9496 41.2959 53.2437 40.8694 53.3827 40.3954C56.5975 28.8209 61.9041 17.9722 69.3025 7.84932C70.4034 6.35836 71.9448 5.51474 73.9266 5.31857C78.6827 4.73003 82.1176 2.02276 86.3453 1.55193C122.633 -2.52859 156.983 2.82707 189.395 17.619C191.42 18.5214 193.468 18.5214 195.538 17.619L197.52 16.6774C198.973 16.0496 200.492 15.9122 202.078 16.2654C217.337 19.8554 231.539 26.8002 245.543 30.3314C287.49 40.8662 327.785 55.1676 369.335 65.9967C389.856 71.372 410.18 77.3162 430.306 83.8294C436.251 85.7716 442.46 83.8882 446.754 91.0095C447.679 92.5397 449.066 92.991 450.915 92.3632C452.369 91.8924 453.293 92.3829 453.69 93.8346C454.218 95.6394 455.517 96.5811 457.587 96.6595C466.351 96.8557 473.727 99.8573 479.716 105.664C480.333 106.253 480.685 106.155 480.773 105.37C480.861 104.742 481.015 104.154 481.236 103.604C481.28 103.487 481.39 103.447 481.566 103.487C490.814 106.625 500.194 109.47 509.706 112.02C511.864 112.609 513.67 113.668 515.123 115.199C516.532 116.611 518.272 117.474 520.342 117.788C521.354 117.984 522.367 118.259 523.38 118.612L544.981 126.44C546.17 126.832 546.786 127.597 546.831 128.735C546.875 129.441 547.117 130.088 547.557 130.677C547.909 131.187 548.482 131.599 549.275 131.913C560.703 136.327 570.215 134.032 581.246 138.21C636.734 159.339 690.968 181.821 749.891 194.416C773.055 199.359 796.307 204.009 819.647 208.364C845.453 213.19 868.243 219.075 888.016 226.02C920.076 237.202 959.292 251.778 1005.66 269.748C1045.92 285.364 1089.93 295.742 1137.71 300.882C1195.58 307.179 1245.58 325.13 1299.49 343.139C1312.63 347.553 1327.43 348.259 1341.5 351.849C1376.97 360.972 1410 368.564 1453.4 375.685C1466.41 377.804 1483.92 374.096 1499.38 384.042C1501.16 385.211 1503.38 385.717 1505.59 385.455C1515.01 384.395 1524.26 384.866 1533.33 386.867C1535.33 387.32 1537.07 388.386 1538.22 389.869C1540.46 392.733 1543.63 393.694 1547.73 392.753C1548.83 392.478 1549.62 392.811 1550.11 393.753C1550.37 394.302 1550.53 394.95 1550.57 395.695C1550.61 396.048 1550.83 396.244 1551.23 396.284C1556.47 396.99 1561.25 398.893 1565.57 401.993C1567.11 403.091 1568.87 403.68 1570.85 403.758L1763.34 412.645Z" fill="#F1F1F1"/>
</svg>
