<svg width="1440" height="570" viewBox="0 0 1440 570" fill="none" xmlns="http://www.w3.org/2000/svg">
<path d="M1720.88 556.297C1717.47 565.343 1712.27 569.911 1705.29 570L1132.96 567.464L1003.55 560.746C1002.22 560.687 1001.03 560.242 999.996 559.411C997.095 557.068 993.882 555.629 990.359 555.095C990.093 555.066 989.945 554.917 989.915 554.651C989.885 554.087 989.782 553.598 989.604 553.182C989.278 552.47 988.746 552.218 988.005 552.426C985.252 553.138 983.12 552.411 981.61 550.246C980.836 549.125 979.669 548.319 978.324 547.977C972.225 546.464 966.007 546.108 959.671 546.909C958.19 547.107 956.693 546.724 955.496 545.841C945.104 538.322 933.335 541.125 924.586 539.523C895.408 534.14 873.203 528.4 849.354 521.504C839.895 518.79 829.947 518.256 821.109 514.919C784.869 501.305 751.25 487.735 712.346 482.975C680.222 479.089 650.63 471.244 623.569 459.439C592.392 445.854 566.027 434.835 544.473 426.381C531.179 421.131 515.857 416.682 498.508 413.034C482.816 409.742 467.183 406.227 451.61 402.489C411.995 392.968 375.533 375.973 338.228 360C330.812 356.841 324.416 358.576 316.733 355.239C316.2 355.002 315.816 354.691 315.579 354.305C315.283 353.86 315.12 353.371 315.09 352.837C315.061 351.977 314.646 351.398 313.847 351.102L299.324 345.184C298.643 344.917 297.962 344.71 297.281 344.561C295.89 344.324 294.72 343.672 293.773 342.604C292.796 341.447 291.582 340.646 290.131 340.201C283.736 338.273 277.43 336.123 271.212 333.75C271.094 333.72 271.02 333.75 270.99 333.839C270.842 334.254 270.738 334.699 270.679 335.174C270.62 335.767 270.383 335.841 269.969 335.396C265.942 331.006 260.983 328.737 255.091 328.589C253.699 328.53 252.826 327.818 252.471 326.453C252.204 325.356 251.582 324.985 250.605 325.341C249.362 325.816 248.429 325.475 247.808 324.318C244.921 318.934 240.746 320.358 236.749 318.89C223.219 313.966 209.555 309.472 195.758 305.409C167.823 297.222 140.733 286.411 112.532 278.447C103.117 275.778 93.5683 270.528 83.3093 267.814C82.2435 267.547 81.222 267.65 80.2449 268.125L78.9126 268.837C77.5211 269.519 76.1444 269.519 74.7824 268.837C52.9914 257.655 29.8977 253.606 5.50127 256.691C2.65897 257.047 0.34964 259.093 -2.84795 259.538C-4.18028 259.686 -5.21659 260.324 -5.95677 261.451C-10.9308 269.104 -14.4984 277.305 -16.6598 286.055C-16.7533 286.413 -16.951 286.736 -17.2277 286.981C-17.5045 287.227 -17.8478 287.385 -18.2142 287.434L-19.8574 287.612C-20.2366 287.661 -20.5881 287.837 -20.8543 288.112C-21.1206 288.387 -21.2858 288.744 -21.3229 289.125C-21.9891 295.888 -24.787 301.227 -25.8085 308.256C-26.3414 311.697 -27.6293 314.856 -29.6722 317.733C-30.5012 318.89 -30.8861 320.18 -30.8269 321.604C-30.6492 326.083 -32.7069 329.019 -37 330.413C-13.7287 225.413 50.4896 138.699 136.292 75.0317C282.404 -33.4386 487.716 -21.2924 626.011 92.0275C638.891 102.587 655.782 120.161 676.684 144.75C710.229 184.258 735.233 228.335 751.694 276.979C751.982 277.848 752.596 278.569 753.403 278.985C754.21 279.402 755.144 279.48 756.002 279.203C872.137 242.053 1000.13 317.822 1029.84 434.701C1029.98 435.222 1030.23 435.706 1030.57 436.119C1030.92 436.532 1031.35 436.863 1031.84 437.088C1032.33 437.314 1032.86 437.428 1033.4 437.423C1033.93 437.418 1034.46 437.294 1034.95 437.059C1071.41 419.085 1107.16 420.686 1145.22 436.659C1195.46 457.748 1231.82 494.379 1254.29 546.553C1254.9 547.965 1255.91 549.168 1257.2 550.014C1258.48 550.86 1259.99 551.312 1261.53 551.314C1413.51 551.966 1565.75 552.203 1718.25 552.025C1720.48 552.025 1721.35 553.449 1720.88 556.297Z" fill="#F1F1F1"/>
</svg>
