<svg width="806" height="195" viewBox="0 0 806 195" fill="none" xmlns="http://www.w3.org/2000/svg">
<path d="M797.259 174.687L804.591 186.811C806.925 190.617 805.648 192.52 800.76 192.52C571.607 192.343 383.806 189.342 115.746 194.285C81.7924 194.913 40.4626 194.697 -8.24362 193.638C-14.8934 193.52 -18.6146 190.519 -19.4073 184.633L-19.8697 180.867C-20.7064 174.471 -17.5137 171.215 -10.2914 171.097L70.5627 170.096L173.876 171.273C177.62 171.313 179.755 169.665 180.284 166.33C192.967 81.345 264.044 5.89449 364.584 0.362245C443.588 -3.99293 508.721 31.0838 540.957 96.8823C541.27 97.5268 541.742 98.1006 542.337 98.5625C542.932 99.0244 543.637 99.3631 544.401 99.5543C545.165 99.7455 545.968 99.7845 546.755 99.6685C547.541 99.5525 548.291 99.2845 548.95 98.8835C623.594 53.6838 705.043 99.06 728.89 167.448C729.448 169.052 730.619 170.43 732.2 171.344C733.781 172.258 735.672 172.65 737.543 172.451C758.153 170.175 778.058 170.92 797.259 174.687Z" fill="#F1F1F1"/>
</svg>
