<svg width="916" height="754" viewBox="0 0 916 754" fill="none" xmlns="http://www.w3.org/2000/svg">
<path d="M2615.6 735.873C2610.53 747.84 2602.81 753.882 2592.41 754L1741.13 750.645L1548.64 741.758C1546.66 741.68 1544.9 741.091 1543.36 739.993C1539.04 736.893 1534.26 734.99 1529.02 734.284C1528.63 734.245 1528.41 734.049 1528.36 733.696C1528.32 732.95 1528.16 732.303 1527.9 731.753C1527.42 730.812 1526.62 730.478 1525.52 730.753C1521.43 731.695 1518.26 730.733 1516.01 727.869C1514.86 726.387 1513.12 725.321 1511.12 724.867C1502.05 722.867 1492.8 722.396 1483.38 723.455C1481.17 723.717 1478.95 723.211 1477.17 722.042C1461.71 712.096 1444.21 715.804 1431.19 713.685C1387.79 706.564 1354.76 698.972 1319.29 689.849C1305.22 686.259 1290.42 685.553 1277.28 681.139C1223.38 663.13 1173.37 645.18 1115.5 638.882C1067.72 633.742 1023.71 623.364 983.456 607.748C937.084 589.779 897.868 575.202 865.808 564.02C846.035 557.076 823.245 551.19 797.438 546.364C774.098 542.009 750.846 537.36 727.682 532.416C668.759 519.821 614.526 497.339 559.038 476.211C548.006 472.032 538.494 474.327 527.066 469.913C526.273 469.599 525.701 469.187 525.349 468.677C524.908 468.089 524.666 467.441 524.622 466.735C524.578 465.597 523.961 464.832 522.772 464.44L501.172 456.612C500.159 456.259 499.146 455.985 498.133 455.788C496.063 455.474 494.324 454.611 492.914 453.199C491.461 451.669 489.656 450.609 487.498 450.021C477.985 447.47 468.605 444.626 459.357 441.487C459.181 441.448 459.071 441.487 459.027 441.604C458.807 442.154 458.653 442.742 458.565 443.37C458.477 444.155 458.124 444.253 457.508 443.664C451.519 437.858 444.142 434.856 435.379 434.66C433.309 434.581 432.01 433.64 431.481 431.835C431.085 430.383 430.16 429.893 428.707 430.364C426.857 430.991 425.47 430.54 424.545 429.01C420.251 421.889 414.042 423.772 408.097 421.83C387.971 415.316 367.648 409.372 347.126 403.997C305.576 393.168 265.281 378.866 223.335 368.332C209.331 364.8 195.128 357.856 179.869 354.266C178.284 353.913 176.764 354.05 175.311 354.678L173.329 355.619C171.26 356.522 169.212 356.522 167.186 355.619C134.774 340.827 100.424 335.472 64.1367 339.552C59.909 340.023 56.4741 342.73 51.718 343.319C49.7363 343.515 48.1948 344.359 47.0939 345.85C39.6955 355.972 34.389 366.821 31.1742 378.396C31.0351 378.87 30.741 379.296 30.3294 379.621C29.9177 379.946 29.407 380.154 28.8621 380.22L26.418 380.456C25.854 380.52 25.3312 380.753 24.9351 381.116C24.5391 381.48 24.2934 381.952 24.2381 382.457C23.2473 391.402 19.0856 398.465 17.5663 407.764C16.7736 412.315 14.858 416.494 11.8193 420.299C10.5863 421.83 10.0138 423.536 10.1019 425.42C10.3661 431.344 7.30546 435.229 0.919922 437.073C35.5339 298.178 131.053 183.472 258.675 99.2525C476.004 -44.2328 781.386 -28.1657 987.089 121.735C1006.25 135.703 1031.37 158.95 1062.46 191.476C1112.36 243.738 1149.55 302.043 1174.03 366.389C1174.46 367.539 1175.37 368.493 1176.57 369.044C1177.77 369.595 1179.16 369.699 1180.44 369.332C1353.18 320.189 1543.56 420.417 1587.75 575.026C1587.95 575.715 1588.32 576.355 1588.84 576.901C1589.35 577.447 1589.99 577.885 1590.72 578.183C1591.45 578.481 1592.24 578.633 1593.04 578.626C1593.84 578.62 1594.62 578.455 1595.34 578.145C1649.58 554.368 1702.75 556.487 1759.36 577.615C1834.1 605.512 1888.18 653.968 1921.6 722.984C1922.5 724.852 1924.01 726.444 1925.92 727.563C1927.83 728.682 1930.07 729.279 1932.37 729.282C2158.42 730.145 2384.86 730.458 2611.7 730.223C2615 730.223 2616.3 732.107 2615.6 735.873Z" fill="#F1F1F1"/>
</svg>
