<svg width="93" height="111" viewBox="0 0 93 111" fill="none" xmlns="http://www.w3.org/2000/svg">
<path d="M88.6611 99.2724L92.3635 106.154C93.542 108.315 92.8972 109.395 90.4289 109.395C-25.2779 109.295 -120.105 107.591 -255.457 110.397C-272.602 110.754 -293.47 110.631 -318.064 110.03C-321.422 109.963 -323.3 108.259 -323.701 104.918L-323.934 102.78C-324.357 99.15 -322.745 97.3014 -319.098 97.2346L-278.272 96.6666L-226.105 97.3348C-224.215 97.3571 -223.137 96.4217 -222.87 94.5286C-216.466 46.2879 -180.577 3.45923 -129.811 0.318906C-89.9189 -2.15326 -57.0314 17.7577 -40.7544 55.1075C-40.596 55.4733 -40.358 55.799 -40.0573 56.0612C-39.7567 56.3234 -39.4008 56.5157 -39.0152 56.6242C-38.6296 56.7327 -38.2237 56.7549 -37.8267 56.6891C-37.4297 56.6232 -37.0512 56.4711 -36.7185 56.2434C0.972137 30.5863 42.0983 56.3436 54.1393 95.1633C54.4211 96.0737 55.0126 96.8563 55.8109 97.3751C56.6092 97.8939 57.5638 98.1161 58.5087 98.003C68.9153 96.7113 78.9661 97.1343 88.6611 99.2724Z" fill="#F1F1F1"/>
</svg>
